<svg width="71" height="72" viewBox="0 0 71 72" fill="none" xmlns="http://www.w3.org/2000/svg">
<path fill-rule="evenodd" clip-rule="evenodd" d="M68.1296 10.9322C68.8104 13.5326 68.7475 16.2676 67.9477 18.835C67.148 21.4024 65.6426 23.7022 63.5978 25.4804C61.5531 27.2586 59.0486 28.4459 56.3611 28.9111C53.6736 29.3763 50.9077 29.1014 48.3691 28.1166L47.4856 27.6554C46.8624 28.381 46.2333 25.6072 45.4491 25.9852C44.5821 26.4032 45.1215 24.6304 44.1569 24.6702C43.1923 24.7099 44.0355 24.0594 43.136 23.7142C42.2366 23.369 43.3082 23.9081 42.6256 23.2362C42.6046 22.2597 42.9762 24.1215 42.6256 23.2362C42.2751 22.351 42.0746 23.7075 42.1152 22.7583C42.3788 22.7529 42.1257 23.2465 41.0944 21.8023C40.9617 21.6164 41.0944 21.8023 40.5735 20.8361L40.0268 19.9135C39.0245 17.4149 38.7438 14.6923 39.2158 12.0466C39.6878 9.40084 40.8941 6.93511 42.7014 4.92198C44.5086 2.90884 46.8463 1.42673 49.4561 0.639511C52.0659 -0.14771 54.8461 -0.209375 57.4893 0.461334C57.8607 0.555902 58.1993 0.747188 58.4696 1.01508C58.7399 1.28298 58.9319 1.61758 59.0253 1.98373C59.1188 2.34987 59.1103 2.73403 59.0007 3.09581C58.8911 3.4576 58.6845 3.78365 58.4026 4.03969L51.4113 10.3746L53.1977 15.1534L58.0601 16.9155L64.487 10.0314C64.7471 9.75228 65.079 9.54756 65.4476 9.43884C65.8162 9.33012 66.2078 9.32146 66.581 9.41375C66.9542 9.50605 67.2951 9.69588 67.5677 9.96316C67.8403 10.2305 68.0344 10.5653 68.1296 10.9322Z" fill="#A4CC64"/>
<path fill-rule="evenodd" clip-rule="evenodd" d="M2.69833 61.0615C1.84311 58.5107 1.72091 55.7776 2.34526 53.1643C2.96961 50.5509 4.31617 48.1589 6.23619 46.2527C8.1562 44.3464 10.5749 43.0001 13.2251 42.3625C15.8752 41.7249 18.6536 41.8207 21.2534 42.6395L22.1661 43.0428C22.7388 42.2785 23.5541 45.0057 24.3111 44.5779C25.1479 44.1049 24.7297 45.9086 25.6895 45.8067C26.6493 45.7048 25.8519 46.4083 26.7727 46.6947C27.6936 46.9811 26.5878 46.5123 27.3143 47.1387C27.4014 48.1117 26.9047 46.278 27.3143 47.1387C27.724 47.9993 27.8322 46.6329 27.856 47.5827C27.5933 47.6051 27.8124 47.0962 28.9392 48.4707C29.0842 48.6476 28.9392 48.4707 29.5243 49.4012L30.1322 50.2865C31.3014 52.7149 31.7656 55.4135 31.4735 58.0839C31.1815 60.7543 30.1446 63.2925 28.4775 65.4178C26.8104 67.5432 24.578 69.1729 22.0272 70.1268C19.4763 71.0807 16.7064 71.3216 14.0236 70.8229C13.6466 70.7525 13.2958 70.5835 13.0079 70.3336C12.7201 70.0838 12.5059 69.7623 12.3879 69.403C12.2699 69.0436 12.2524 68.6598 12.3373 68.2917C12.4222 67.9236 12.6063 67.585 12.8703 67.3113L19.4178 60.5391L17.3121 55.886L12.3411 54.4415L6.3939 61.7253C6.15325 62.0206 5.83592 62.2463 5.47546 62.3785C5.11501 62.5108 4.72484 62.5447 4.34621 62.4767C3.96757 62.4087 3.61456 62.2413 3.32448 61.9921C3.03441 61.743 2.81807 61.4215 2.69833 61.0615Z" fill="#A4CC64"/>
<line y1="-4" x2="33.1644" y2="-4" transform="matrix(0.666683 -0.745342 0.760701 0.649102 27 49.8125)" stroke="#A4CC64" stroke-width="8"/>
<path d="M5 9.76709L62 58.6028" stroke="#A4CC64" stroke-width="8" stroke-linecap="round"/>
<rect width="12.0279" height="12.3127" rx="2" transform="matrix(0.74062 0.671924 -0.689138 0.72463 61.9336 50.7004)" fill="#A4CC64"/>
</svg>
