<svg width="40" height="40" viewBox="0 0 40 40" fill="none" xmlns="http://www.w3.org/2000/svg">
<g clip-path="url(#clip0_310_3406)">
<path fill-rule="evenodd" clip-rule="evenodd" d="M1 0.1C1 0.1891 0.9835 0.2 0.848 0.2C0.6569 0.2 0.6 0.2564 0.6 0.4458V0.5956L0.41 0.6078L0.22 0.62L0.2078 0.81C0.1968 0.9815 0.1861 1 0.0978 1H0V20V39H0.0978C0.1861 39 0.1968 39.0185 0.2078 39.19L0.22 39.38L0.4079 39.3921L0.5958 39.4042L0.6079 39.5921L0.62 39.78L0.81 39.7922C0.9815 39.8032 1 39.8139 1 39.9022V40H20H39V39.9C39 39.8078 39.0148 39.7998 39.19 39.797C39.6167 39.7901 39.7607 39.6546 39.7924 39.23C39.8082 39.0192 39.8176 39 39.9048 39H40V20V1H39.9048C39.8176 1 39.8082 0.9808 39.7924 0.77C39.7607 0.3454 39.6167 0.2099 39.19 0.203C39.0148 0.2002 39 0.1922 39 0.1V0H35.3852H31.7703L31.7454 0.19C31.7317 0.2945 31.6745 0.785 31.6184 1.28C31.5622 1.775 31.4799 2.351 31.4355 2.56C31.3911 2.769 31.3201 3.309 31.2778 3.76C31.2354 4.211 31.1744 4.706 31.1422 4.86C30.9748 5.6601 30.8737 6.3684 30.8194 7.12C30.7837 7.6145 30.6911 8.2531 30.6017 8.62C30.5589 8.796 30.477 9.408 30.4198 9.98C30.3626 10.552 30.2821 11.146 30.2409 11.3C30.1435 11.6646 30.0958 11.9906 30.0186 12.82C29.9837 13.194 29.8934 13.8155 29.8179 14.2011C29.7423 14.5867 29.6622 15.1357 29.6398 15.4211C29.5703 16.3087 29.5239 16.659 29.4192 17.0866C29.3203 17.4904 29.1615 18.7779 29.1605 19.1837C29.16 19.3881 29.0747 19.6814 28.9289 19.98C28.8737 20.093 28.8438 20.2634 28.8269 20.56C28.8024 20.9926 28.6305 22.2412 28.5643 22.4676C28.53 22.5848 28.4668 23.0629 28.3564 24.04C28.2687 24.8166 28.1933 25.3462 28.1399 25.56C28.1097 25.681 28.0562 26.059 28.0209 26.4C27.9857 26.741 27.9134 27.263 27.8604 27.56C27.8073 27.857 27.7253 28.37 27.6783 28.7C27.5638 29.502 27.5257 29.697 27.4675 29.7765C27.387 29.8866 22.2501 29.9233 22.1551 29.8144C22.0734 29.7208 22.021 29.4786 21.9399 28.82C21.9046 28.534 21.8513 28.174 21.8213 28.02C21.6769 27.2786 21.5998 26.7757 21.5576 26.3C21.5323 26.014 21.4863 25.708 21.4555 25.62C21.384 25.4157 21.3403 25.1134 21.2202 23.9936C21.1667 23.4951 21.0868 22.9095 21.0425 22.6924C20.9549 22.2626 20.8679 21.6577 20.7989 21C20.7639 20.6663 20.7317 20.5387 20.6421 20.3789C20.5074 20.1386 20.4541 19.8829 20.4214 19.32C20.385 18.692 20.2824 17.8064 20.22 17.58C20.133 17.2648 20.0479 16.7211 19.9603 15.92C19.9157 15.513 19.8345 14.973 19.7798 14.72C19.6665 14.1963 19.6196 13.8512 19.5411 12.9646C19.5107 12.6211 19.4496 12.151 19.4053 11.92C19.151 10.5932 19.0619 9.809 19.1538 9.7059C19.3183 9.5213 19.3351 9.5198 21.208 9.5229C23.7359 9.5271 23.5388 9.4584 23.6221 10.3638C23.6827 11.0215 23.7312 11.4312 23.8206 12.04C23.9609 12.9954 24.0028 13.334 24.0381 13.8C24.0852 14.4206 24.1462 15.0075 24.2233 15.58C24.3423 16.4647 24.4345 17.3986 24.4798 18.18C24.5053 18.62 24.5518 19.1676 24.5831 19.397C24.6144 19.6263 24.64 19.9174 24.64 20.0439C24.64 20.2862 24.816 20.6027 24.9671 20.6318C25.0605 20.6498 25.1045 20.2759 25.2199 18.48C25.2755 17.6154 25.3463 17.058 25.4384 16.76C25.4622 16.683 25.5084 16.323 25.541 15.96C25.6639 14.591 25.6784 14.4565 25.7186 14.3206C25.8017 14.0396 25.9163 13.2856 25.9589 12.74C26.0117 12.0634 26.0929 11.4173 26.2025 10.8C26.2475 10.547 26.3102 10.025 26.3419 9.64C26.4234 8.6505 26.5981 7.3401 26.6624 7.2361C26.6719 7.2208 26.7073 6.8959 26.7412 6.5141C26.818 5.6501 26.9043 5.0007 26.9772 4.74C27.0323 4.5427 27.0756 4.18 27.1611 3.2C27.2306 2.4027 27.2646 2.1477 27.4119 1.32C27.4882 0.891 27.5623 0.4185 27.5764 0.27L27.6022 0H20.1811H12.76L12.7607 0.19C12.7611 0.2945 12.7592 2.3261 12.7564 4.7046C12.7531 7.5633 12.7652 9.0549 12.792 9.105C12.9034 9.3133 12.8765 9.3103 14.3 9.2707C15.7266 9.231 15.9862 9.2494 16.4 9.4199C16.521 9.4697 16.7214 9.5395 16.8454 9.575C16.9694 9.6105 17.1404 9.6938 17.2254 9.7601C17.3104 9.8264 17.479 9.9578 17.6 10.0521C17.721 10.1465 17.9136 10.3578 18.0281 10.5218C18.1425 10.6858 18.2656 10.8597 18.3015 10.9082C18.3374 10.9567 18.4311 11.1817 18.5097 11.4082L18.6527 11.82L18.67 15.966C18.6859 19.8058 18.682 20.1353 18.6172 20.426C18.5526 20.716 18.5492 20.9792 18.5727 23.8626L18.598 26.9853L18.501 27.4426C18.3766 28.0285 18.3086 28.2169 18.1602 28.3859C18.0941 28.4612 18.04 28.5405 18.04 28.5622C18.04 28.6822 17.119 29.4885 16.9 29.5602C16.812 29.589 16.623 29.6682 16.48 29.7363L16.22 29.86L12.3759 29.8697C8.7641 29.8788 8.5282 29.8752 8.4716 29.8097C8.3168 29.6308 8.3133 29.5056 8.3219 24.42C8.3281 20.7494 8.3182 19.4495 8.283 19.3012C8.2473 19.151 8.2364 16.767 8.2385 9.5512L8.2413 0H4.6207H1V0.1ZM12.8489 13.6995L12.74 13.7932L12.7394 16.8866C12.739 18.662 12.7234 20.0044 12.7026 20.0372C12.6818 20.0701 12.6693 21.2163 12.6732 22.7372L12.68 25.38L12.7861 25.4733C12.8895 25.5642 12.9091 25.5663 13.5401 25.5533C14.2342 25.539 14.2894 25.5236 14.3678 25.3216C14.4245 25.1752 14.4167 20.3266 14.3593 20.04C14.3288 19.8881 14.3187 18.8828 14.3266 16.7904C14.3367 14.1089 14.3309 13.7538 14.2765 13.6994C14.1586 13.5814 12.986 13.5815 12.8489 13.6995ZM2.7171 31.6654C2.7888 31.7565 2.8 31.8265 2.8 32.1832C2.8 32.7703 2.8335 32.8057 3.4142 32.8315C3.8929 32.8528 3.8757 32.8426 4.1357 33.2614C4.26 33.4618 4.2619 33.5275 4.1667 34.3431C4.1511 34.4768 4.1588 34.8548 4.1838 35.1831C4.2913 36.597 4.2079 37.2905 3.9005 37.54L3.7526 37.66L2.9778 37.6742C1.9654 37.6928 1.7701 37.6042 1.8445 37.16C1.8973 36.8445 1.8958 32.6691 1.8427 32.1837C1.8188 31.9657 1.8039 31.7833 1.8096 31.7783C2.0952 31.5286 2.5636 31.4703 2.7171 31.6654ZM6.5876 32.8794C6.7383 32.9346 7.08 33.3325 7.08 33.4528C7.08 33.4987 7.0586 33.7292 7.0323 33.965C6.996 34.2916 6.9957 34.4643 7.0308 34.6904C7.1304 35.3308 7.0471 35.4267 6.38 35.44C5.708 35.4534 5.5983 35.5431 5.6023 36.0759C5.6077 36.8056 5.84 36.8647 6.4456 36.2905C6.6071 36.1373 6.6477 36.1427 6.9 36.3509C7.0762 36.4962 7.1164 36.5937 7.0935 36.82C7.0117 37.6307 6.6125 37.7991 5.241 37.6014C4.8004 37.5379 4.8 37.5359 4.8 35.2653C4.8 32.9166 4.7912 32.9483 5.48 32.8238C5.6593 32.7914 6.4567 32.8314 6.5876 32.8794ZM12.3925 32.9304C12.7306 33.1539 12.881 33.6559 12.7503 34.1249C12.6766 34.3891 12 34.4007 12 34.1377C12 33.8153 11.4156 33.7452 11.2668 34.0498C11.0969 34.3975 11.4077 34.8139 11.9192 34.9236C12.0309 34.9475 12.1742 35.0108 12.2376 35.0641C12.301 35.1175 12.4171 35.1879 12.4956 35.2208C12.7415 35.3235 12.7536 35.3705 12.7641 36.26C12.779 37.5232 12.6847 37.6395 11.6226 37.6685C10.6686 37.6945 10.4 37.4966 10.4 36.7677C10.4 36.2531 10.8078 36.0283 11.12 36.3708C11.3083 36.5774 11.7898 36.7627 11.8663 36.6581C11.9349 36.5643 12.0067 36.2049 11.9699 36.1392C11.8382 35.9037 11.4741 35.6042 11.2916 35.5812C10.5034 35.4817 10.4286 35.3648 10.4203 34.22C10.4138 33.3259 10.4175 33.3105 10.7075 33.0352C10.9315 32.8225 10.9419 32.82 11.6105 32.82C12.2148 32.82 12.2283 32.8219 12.3925 32.9304ZM15.2529 32.9274C15.3671 32.985 15.4303 33.0572 15.5025 33.2123C15.6646 33.5605 15.6397 35.1634 15.4686 35.3894C15.441 35.4258 15.3244 35.4322 15.0213 35.4136C14.2892 35.3688 13.9317 35.7849 14.1163 36.4671C14.2133 36.8257 14.6057 36.7755 14.8664 36.3711C15.0107 36.1473 14.9931 36.1528 15.3419 36.2214C15.6188 36.2758 15.6982 37.2744 15.4431 37.4945C15.1533 37.7445 13.9314 37.7505 13.5681 37.5037C13.2537 37.2902 13.2714 37.5085 13.2788 33.9319L13.28 33.3237L13.4957 33.0919L13.7114 32.86L14.3257 32.8386C15.0067 32.8148 15.0351 32.8175 15.2529 32.9274ZM20.3627 32.8636C20.6454 32.9464 20.626 32.9111 20.6795 33.44C20.7505 34.1413 20.9036 34.8 20.9957 34.8C21.1001 34.8 21.2857 34.1155 21.3373 33.54C21.389 32.9642 21.3839 32.9768 21.6061 32.8812C21.8499 32.7763 22.2065 32.7987 22.2946 32.9245C22.3502 33.0038 22.2956 33.3765 22.145 33.9458C22.1093 34.0809 22.0799 34.2969 22.0798 34.4258C22.0796 34.5546 22.0616 34.768 22.0396 34.9C22.0177 35.032 21.9819 35.329 21.9601 35.56C21.9273 35.9073 21.833 36.6123 21.7314 37.2692C21.7185 37.3528 21.6564 37.4481 21.5556 37.5392L21.3998 37.68H20.984H20.5683L20.4441 37.5386C20.3697 37.4538 20.32 37.3532 20.32 37.2873C20.32 37.2269 20.2924 37.079 20.2587 36.9587C20.1746 36.6585 20.0993 36.1743 20.0018 35.3069C19.9564 34.9028 19.8925 34.482 19.8598 34.3718C19.7817 34.1088 19.6409 33.3003 19.6404 33.1116C19.6396 32.8152 19.8964 32.7271 20.3627 32.8636ZM24.7793 32.9109C25.1686 33.1239 25.1585 33.0658 25.1743 35.1834C25.1887 37.1221 25.1752 37.4497 25.0742 37.604L25.0114 37.7L24.2128 37.6764C22.8944 37.6373 22.8458 37.5864 22.8422 36.2426C22.8393 35.1635 22.8761 35.0139 23.1885 34.8351C23.3774 34.7271 23.434 34.7132 23.6132 34.7309C23.9834 34.7674 24.3994 34.49 24.3999 34.2062C24.4005 33.7674 23.7102 33.7808 23.5144 34.2234C23.4234 34.429 23.4405 34.4245 23.1744 34.3141C22.7469 34.137 22.726 33.3689 23.1387 33.0065C23.3194 32.8478 23.3487 32.8418 24 32.8285C24.297 32.8224 24.549 32.814 24.56 32.8097C24.571 32.8054 24.6697 32.8509 24.7793 32.9109ZM27.6089 32.8934C28.1661 33.1398 28.1758 34.4086 27.62 34.3359C27.3156 34.2961 27.3026 34.2877 27.18 34.0513C26.9377 33.5842 26.3458 33.9058 26.5726 34.3813C26.6773 34.601 26.7082 35.6202 26.6222 36.0202C26.5098 36.5425 26.5351 36.6478 26.7892 36.7154C27.0441 36.7833 27.0769 36.7631 27.2424 36.4353C27.5081 35.9088 28 36.14 28 36.7913C28 37.5274 27.8138 37.6809 26.9229 37.679C26.2073 37.6776 26.0353 37.6056 25.8368 37.2249C25.7555 37.0688 25.753 37.0104 25.7493 35.1954L25.7455 33.3267L25.9487 33.0933L26.1518 32.86L26.6859 32.8377C26.9797 32.8255 27.26 32.812 27.3089 32.8077C27.3577 32.8035 27.4928 32.842 27.6089 32.8934ZM29.2587 32.9142C29.43 33.0134 29.5258 34.0749 29.4491 35.0224C29.4329 35.2217 29.4326 35.4737 29.4484 35.5824C29.4642 35.6911 29.4622 35.8763 29.444 35.9941C29.3729 36.4535 29.6951 36.8993 29.923 36.6568L30.02 36.5536L30.032 34.7673C30.0437 33.0091 30.0453 32.9795 30.1289 32.8905C30.2526 32.7589 30.5895 32.7611 30.7146 32.8943L30.8032 32.9886L30.7916 35.1843C30.7782 37.7228 30.8034 37.562 30.4086 37.6288C30.2132 37.6618 29.5647 37.6711 29.1331 37.6471C28.8333 37.6304 28.559 37.154 28.6479 36.8045C28.685 36.6586 28.6797 36.5808 28.6163 36.3445C28.5196 35.984 28.5234 34.5938 28.6218 34.3149C28.7153 34.05 28.697 33.6563 28.5678 33.1541C28.4906 32.8538 28.9054 32.7098 29.2587 32.9142ZM32.0886 32.8615C32.3239 32.9041 32.3167 32.846 32.3288 34.7962L32.34 36.6071L32.4368 36.6855C32.5619 36.7868 32.6712 36.7679 32.776 36.6269C32.8584 36.516 32.86 36.4795 32.86 34.7384C32.86 33.2135 32.8685 32.9544 32.92 32.9029C33.0075 32.8154 33.441 32.8053 33.5669 32.8878L33.6649 32.9519L33.6588 35.006C33.6502 37.8533 33.722 37.702 32.3972 37.6686L31.8284 37.6543L31.7212 37.5344C31.5274 37.3175 31.513 37.1267 31.5271 34.9662L31.54 32.9924L31.66 32.8953C31.7303 32.8384 31.8132 32.8057 31.86 32.8164C31.904 32.8264 32.0069 32.8466 32.0886 32.8615ZM37.66 32.9159C38.0052 33.0686 38.0047 33.0652 38.0296 35.4L38.0512 37.42L37.9295 37.55C37.8207 37.6663 37.7847 37.68 37.5867 37.68C37.1821 37.68 37.1945 37.7421 37.2026 35.768C37.2108 33.7597 37.2052 33.7322 36.8123 33.8421C36.5085 33.9272 36.4698 34.0299 36.4967 34.68C36.509 34.977 36.5224 35.7223 36.5265 36.3362L36.534 37.4524L36.377 37.5645C36.2196 37.6769 36.1679 37.682 35.8507 37.6171C35.7054 37.5874 35.64 37.4127 35.6868 37.1788C35.7111 37.0574 35.7173 36.5364 35.7029 35.84C35.689 35.1734 35.6953 34.592 35.7181 34.44C35.779 34.0316 35.5227 33.6366 35.3173 33.8225C35.1514 33.9725 35.1493 33.9991 35.157 35.7589C35.1644 37.4429 35.1635 37.4648 35.0793 37.5717C34.9521 37.7335 34.6227 37.7298 34.4647 37.5649L34.3544 37.4498L34.3584 35.4349C34.3628 33.2777 34.3774 33.1053 34.5716 32.9294C34.7224 32.7928 37.3558 32.7813 37.66 32.9159ZM9.6467 33.0057C9.9651 33.31 10.0219 33.5238 9.9271 34.06C9.8785 34.3347 9.3781 34.4338 9.2481 34.1945C9.1327 33.982 9.028 33.8908 8.8229 33.8241C8.5624 33.7394 8.5738 33.7361 8.478 33.9239C8.257 34.3571 8.4782 34.7527 9.034 34.9182C9.1855 34.9633 9.3533 35.0347 9.4067 35.0767C9.4602 35.1187 9.5923 35.1952 9.7004 35.2466C9.9498 35.3652 9.9565 35.3953 9.945 36.3595C9.9346 37.2375 9.9033 37.3397 9.5805 37.55L9.3809 37.68H8.8182C7.9334 37.68 7.7457 37.5957 7.6433 37.1523C7.5175 36.6074 7.6553 36.2272 7.9855 36.2081C8.1803 36.1968 8.1954 36.2031 8.273 36.3287C8.4611 36.633 8.9695 36.8065 9.0781 36.6035C9.2122 36.3529 9.1806 36.1528 8.9726 35.9365C8.7048 35.658 8.6312 35.6182 8.24 35.5414C7.6468 35.4249 7.6203 35.3654 7.6238 34.16C7.6275 32.901 7.68 32.8424 8.8067 32.8409L9.4735 32.84L9.6467 33.0057ZM18.3488 32.9109C18.5072 33.0341 18.5146 33.3758 18.364 33.61C18.2272 33.8227 18.2416 33.8196 17.746 33.7451C17.0579 33.6416 17.0476 33.672 17.0499 35.8127C17.0519 37.67 17.0703 37.55 16.7705 37.6349C16.269 37.7769 16.0052 37.5653 16.1378 37.1274C16.1868 36.9655 16.2013 36.8309 16.1845 36.696C16.1264 36.2325 16.1127 35.7111 16.1544 35.5458C16.2253 35.2643 16.2151 34.0725 16.1387 33.7081L16.0734 33.3962L16.2367 33.219C16.3265 33.1215 16.4 33.0276 16.4 33.0102C16.4 32.8328 18.1348 32.7444 18.3488 32.9109ZM2.9689 33.7492C2.7913 33.8125 2.7622 34.019 2.7613 35.2211C2.7603 36.7055 2.818 36.8782 3.242 36.659L3.36 36.5979L3.3669 35.629C3.3758 34.3693 3.3647 34.1273 3.2906 33.9682C3.2272 33.8321 3.0585 33.7172 2.9689 33.7492ZM5.6876 33.8995C5.5215 34.1105 5.5269 34.3469 5.7023 34.5554C5.9431 34.8417 6.4722 34.3783 6.2652 34.0624C6.106 33.8194 5.8151 33.7374 5.6876 33.8995ZM14.2916 33.893C13.9036 34.0349 13.9791 34.5221 14.3981 34.5797C14.7719 34.6311 14.9609 34.2715 14.7385 33.9321C14.6704 33.8282 14.5077 33.814 14.2916 33.893ZM23.9356 35.4855C23.6415 35.5517 23.5254 36.1495 23.7304 36.5425C23.8098 36.6947 24.1723 36.8049 24.2705 36.7067C24.4205 36.5566 24.4517 35.7932 24.3167 35.5747C24.2291 35.433 24.1999 35.4261 23.9356 35.4855Z" fill="#FB661D"/>
</g>
<defs>
<clipPath id="clip0_310_3406">
<rect width="40" height="40" fill="white"/>
</clipPath>
</defs>
</svg>
