<svg width="155" height="33" viewBox="0 0 155 33" fill="none" xmlns="http://www.w3.org/2000/svg">
<g id="checkup-logo 1" clip-path="url(#clip0_61_4763)">
<path id="Vector" d="M20.5675 19.2568C19.0791 23.9926 15.2905 26.7664 10.5548 26.7664C7.57804 26.7664 5.14252 25.7516 3.18058 23.5867C1.28628 21.6247 0.271484 19.0539 0.271484 16.2801C0.271484 13.574 1.28628 11.0708 3.24823 9.10885C5.27783 7.07925 7.64569 6.06445 10.4871 6.06445C15.4258 6.06445 19.0114 8.77058 20.5675 13.7093H14.4787C13.6668 12.3562 12.3138 11.612 10.4195 11.612C7.84865 11.612 5.95436 13.574 5.95436 16.2801C5.95436 19.2568 7.84865 21.1511 10.6224 21.1511C12.1785 21.1511 13.4639 20.4746 14.411 19.1892H20.5675V19.2568Z" fill="#FB661D"/>
<path id="Vector_2" d="M23.4082 26.2252V0.313965H28.8881V9.10889C30.1059 7.2146 31.9325 6.33511 34.368 6.33511C38.4272 6.33511 41.0657 8.90593 41.0657 13.371V26.2928H35.3152V15.6036C35.3152 12.8298 34.7063 11.6121 32.5414 11.6121C30.3088 11.6121 29.0911 12.9651 29.0911 15.6036V26.2252H23.4082Z" fill="#FB661D"/>
<path id="Vector_3" d="M58.5881 14.386C57.9116 12.3564 56.2879 11.274 53.9877 11.274C51.6198 11.274 49.8608 12.4917 49.4549 14.386H58.5881ZM63.4591 20.5425C61.5648 24.6017 58.3175 26.6989 53.92 26.6989C50.9433 26.6989 48.5078 25.6841 46.5458 23.5869C44.6515 21.5573 43.6367 19.1218 43.6367 16.348C43.6367 13.6418 44.7192 11.071 46.6135 9.17672C48.5754 7.21478 51.1462 6.13232 53.8524 6.13232C60.0765 6.13232 64.3386 10.5974 64.3386 17.904V18.5129H49.6579C50.1991 20.6101 51.6875 21.6926 54.1906 21.6926C55.3407 21.6926 56.2879 21.3543 57.1674 20.6101H63.4591V20.5425Z" fill="#FB661D"/>
<path id="Vector_4" d="M87.0694 19.2568C85.581 23.9926 81.8601 26.7664 77.0567 26.7664C74.08 26.7664 71.6445 25.7516 69.6825 23.5867C67.7882 21.6247 66.7734 19.0539 66.7734 16.2801C66.7734 13.574 67.8559 11.0708 69.7502 9.10885C71.7798 7.07925 74.1476 6.06445 76.9891 6.06445C81.9278 6.06445 85.5134 8.77058 87.0694 13.7093H80.9806C80.1688 12.3562 78.8157 11.612 76.9214 11.612C74.3506 11.612 72.4563 13.574 72.4563 16.2801C72.4563 19.2568 74.3506 21.1511 77.1244 21.1511C78.6804 21.1511 79.9658 20.4746 80.913 19.1892H87.0694V19.2568Z" fill="#FB661D"/>
<path id="Vector_5" d="M95.7969 0.313965V14.0476L101.683 6.67337H108.583L100.803 15.4006L108.042 26.2252H101.074L95.7969 17.2273V26.2252H90.1816V0.313965H95.7969Z" fill="#FB661D"/>
<path id="Vector_6" d="M128.609 6.67334V26.2251H123.264V23.5867C122.046 25.6163 120.152 26.5634 117.649 26.5634C113.59 26.5634 110.951 23.9926 110.951 19.5275V6.67334H116.769V17.2273C116.769 19.9334 117.378 21.2188 119.611 21.2188C121.843 21.2188 123.061 19.8657 123.061 17.2273V6.67334H128.609Z" fill="#FB661D"/>
<path id="Vector_7" d="M142.748 21.3539C145.454 21.3539 147.619 19.1214 147.619 16.4829C147.619 13.7768 145.522 11.6795 142.545 11.6795C140.042 11.6795 138.012 13.7091 138.012 16.4152C138.012 19.2567 140.042 21.3539 142.748 21.3539ZM138.215 32.5844H132.465V6.67317H137.945V8.97339C139.636 7.2144 141.395 6.47021 143.831 6.47021C146.198 6.47021 148.228 7.2144 149.919 8.77043C152.22 10.8 153.37 13.3708 153.37 16.4829C153.37 19.3243 152.287 21.8275 150.258 23.7895C148.431 25.5484 146.198 26.4279 143.763 26.4279C141.395 26.4279 139.568 25.6161 138.283 23.9248V32.5844H138.215Z" fill="#FB661D"/>
</g>
<defs>
<clipPath id="clip0_61_4763">
<rect width="154.114" height="32" fill="white" transform="translate(0 0.313965)"/>
</clipPath>
</defs>
</svg>
