<svg width="119" height="80" viewBox="0 0 119 80" fill="none" xmlns="http://www.w3.org/2000/svg">
<path d="M29.7849 75.9779C15.5442 75.9779 4 64.8655 4 51.1563C4 37.4528 15.5442 26.3404 29.7849 26.3404C31.9609 16.5845 39.7179 8.62259 50.1327 5.45C60.5419 2.28295 72.0363 4.3814 80.2751 10.9868C88.5138 17.5756 92.2456 27.636 90.0752 37.3918H95.5566C106.149 37.3918 114.736 46.0293 114.736 56.6932C114.736 67.3626 106.149 76 95.5511 76H29.7849" stroke="#A4CC64" stroke-width="8" stroke-linecap="round" stroke-linejoin="round"/>
<path d="M78.3796 62.5244L78.3884 52.4691L68.3332 52.4392" stroke="#A4CC64" stroke-width="6" stroke-linecap="round" stroke-linejoin="round"/>
<path d="M39 56C53.1081 67.2859 61.2772 68.7088 76 56" stroke="#A4CC64" stroke-width="6" stroke-linecap="round"/>
<path d="M39.8716 32.46L39.863 42.4278L49.5986 42.4575" stroke="#A4CC64" stroke-width="6" stroke-linecap="round" stroke-linejoin="round"/>
<path d="M78 38.9275C64.3404 27.7398 56.4309 26.3292 42.1761 38.9275" stroke="#A4CC64" stroke-width="6" stroke-linecap="round"/>
</svg>
