<svg width="72" height="72" viewBox="0 0 72 72" fill="none" xmlns="http://www.w3.org/2000/svg">
<path d="M61.7143 51.4286C56.9366 51.4286 52.9457 54.0771 51.7937 58.5H20.2063C19.7435 56.7332 18.8189 55.7641 17.5274 54.4726C16.2359 53.1811 15.7668 52.2565 14 51.7937V44C14 41.1637 15.1637 39.5 18 39.5H54C59.6726 39.5 65 33.9583 65 28.2857V20.2063C69.4229 19.0569 72 15.0634 72 10.2857C72 4.61314 67.3869 0 61.7143 0C56.0417 0 51.4286 4.61314 51.4286 10.2857C51.4286 15.0634 54.72 19.0543 59.1429 20.2063V28.2857C59.1429 31.122 56.8363 33.4286 54 33.4286H18C12.3274 33.4286 7.71429 38.0417 7.71429 43.7143V51.7937C3.29143 52.9431 0 56.9366 0 61.7143C0 67.3869 4.61314 72 10.2857 72C15.0634 72 19.0543 69.1502 20.2063 64.7273H51.7937C52.9431 69.1502 56.9366 72 61.7143 72C67.3869 72 72 67.3869 72 61.7143C72 56.0417 67.3869 51.4286 61.7143 51.4286ZM56.5714 10.2857C56.5714 7.44943 58.878 5.14286 61.7143 5.14286C64.5506 5.14286 66.8571 7.44943 66.8571 10.2857C66.8571 13.122 64.5506 15.4286 61.7143 15.4286C58.878 15.4286 56.5714 13.122 56.5714 10.2857ZM10.2857 66.8571C7.44943 66.8571 5.14286 64.5506 5.14286 61.7143C5.14286 58.878 7.44943 56.5714 10.2857 56.5714C13.122 56.5714 15.4286 58.878 15.4286 61.7143C15.4286 64.5506 13.122 66.8571 10.2857 66.8571ZM61.7143 66.8571C58.878 66.8571 56.5714 64.5506 56.5714 61.7143C56.5714 58.878 58.878 56.5714 61.7143 56.5714C64.5506 56.5714 66.8571 58.878 66.8571 61.7143C66.8571 64.5506 64.5506 66.8571 61.7143 66.8571Z" fill="#A4CC64"/>
<path d="M10.2857 20.5714C12.1886 20.5714 12.97 20.4051 14.5 19.5L31.5 35L40.5 34L19.5 14.5C20.4449 12.9324 20.5621 12.116 20.5714 10.2857C20.5714 4.61314 15.9583 0 10.2857 0C4.61314 0 0 4.61314 0 10.2857C0 15.9583 4.61314 20.5714 10.2857 20.5714ZM10.2857 5.14286C13.122 5.14286 15.4286 7.44943 15.4286 10.2857C15.4286 13.122 13.122 15.4286 10.2857 15.4286C7.44943 15.4286 5.14286 13.122 5.14286 10.2857C5.14286 7.44943 7.44943 5.14286 10.2857 5.14286Z" fill="#A4CC64"/>
<circle cx="10.2854" cy="10.2857" r="5.14286" fill="#A4CC64"/>
<circle cx="61.7151" cy="10.2857" r="5.14286" fill="#A4CC64"/>
<circle cx="10.2854" cy="61.7144" r="5.14286" fill="#A4CC64"/>
<circle cx="61.7151" cy="61.7144" r="5.14286" fill="#A4CC64"/>
</svg>
