<svg width="97" height="100" viewBox="0 0 97 100" fill="none" xmlns="http://www.w3.org/2000/svg">
<path fill-rule="evenodd" clip-rule="evenodd" d="M54.415 0.275406C49.8528 0.944061 45.4513 2.8203 42.0879 5.53043L41.2217 6.22831L40.3723 5.83432C31.3363 1.64074 20.0069 7.46223 19.4561 16.5816C19.3774 17.8863 19.3658 17.9244 19.0179 18.0032C11.2069 19.7707 5.40012 23.9798 2.27136 30.1419C-5.01692 44.4957 6.07264 60.5362 23.5881 60.9761L26.5944 61.0517L26.5048 63.3197C26.4557 64.5674 26.4154 66.7826 26.4154 68.2426V70.8972H24.4341C21.9121 70.8972 21.1133 71.2293 20.5656 72.5055C20.2842 73.1614 20.2842 97.7306 20.5656 98.3864C20.7968 98.9249 21.5425 99.6515 22.0665 99.8491C22.5998 100.05 36.8191 100.05 37.3523 99.8491C37.8765 99.6515 38.6222 98.9249 38.8531 98.3864C39.1345 97.7306 39.1345 73.1614 38.8531 72.5055C38.376 71.3938 37.4571 70.8972 35.8768 70.8972H34.7878V67.2123C34.7878 65.1858 34.8279 62.9622 34.8769 62.2713L34.9661 61.015H50.5239H66.0815V62.6397C66.0815 63.5333 66.0409 65.7528 65.9911 67.5718L65.901 70.8793L62.7278 70.9225L59.5548 70.9658L58.6427 71.4151C57.5612 71.948 56.5386 72.9966 55.969 74.1571L55.5818 74.9461L55.5427 82.0679C55.5081 88.3824 55.5294 89.2692 55.7301 89.8913C56.2302 91.4402 57.2607 92.5944 58.7903 93.3191L59.6993 93.7498L64.0571 93.7913C66.6825 93.8162 68.415 93.8843 68.415 93.9628C68.415 94.0385 67.6359 94.093 66.5564 94.093C64.9719 94.093 64.6193 94.1332 64.1625 94.3663C62.2174 95.3586 62.2113 98.3144 64.1528 99.3048C64.785 99.6273 77.299 99.7459 78.1165 99.437C79.857 98.7794 80.3474 96.2749 79.0103 94.8709C78.3851 94.2143 77.8967 94.093 75.8784 94.093C74.7457 94.093 74.0423 94.0404 74.0423 93.9556C74.0423 93.8672 75.4979 93.8184 78.1349 93.8184C83.3027 93.8184 84.0139 93.6396 85.5734 91.9477C86.9815 90.42 87.0813 89.785 87.0813 82.3578C87.0813 73.9885 86.6991 72.7485 83.6846 71.3359L82.8952 70.9658L78.6059 70.9242L74.3167 70.8827L74.3172 69.14C74.3172 68.1815 74.358 65.9613 74.4077 64.206L74.4978 61.015L76.9809 61.0142C89.2049 61.0116 98.131 51.9934 96.5579 41.2353C95.573 34.5005 89.6455 28.4222 82.5118 26.8324C81.9567 26.7087 81.7378 26.6008 81.7864 26.4744C82.3326 25.0511 82.3917 20.0408 81.89 17.7114C79.4111 6.20271 67.1342 -1.58827 54.415 0.275406ZM30.9124 95.1117C31.6332 95.7724 31.6675 96.865 30.9885 97.5438C29.8468 98.6855 27.9938 97.9649 27.9938 96.3792C27.9938 94.7839 29.7311 94.0293 30.9124 95.1117Z" fill="black"/>
<path fill-rule="evenodd" clip-rule="evenodd" d="M54.415 0.275406C49.8528 0.944061 45.4513 2.8203 42.0879 5.53043L41.2217 6.22831L40.3723 5.83432C31.3363 1.64074 20.0069 7.46223 19.4561 16.5816C19.3774 17.8863 19.3658 17.9244 19.0179 18.0032C11.2069 19.7707 5.40012 23.9798 2.27136 30.1419C-5.01692 44.4957 6.07264 60.5362 23.5881 60.9761L26.5944 61.0517L26.5048 63.3197C26.4557 64.5674 26.4154 66.7826 26.4154 68.2426V70.8972H24.4341C21.9121 70.8972 21.1133 71.2293 20.5656 72.5055C20.2842 73.1614 20.2842 97.7306 20.5656 98.3864C20.7968 98.9249 21.5425 99.6515 22.0665 99.8491C22.5998 100.05 36.8191 100.05 37.3523 99.8491C37.8765 99.6515 38.6222 98.9249 38.8531 98.3864C39.1345 97.7306 39.1345 73.1614 38.8531 72.5055C38.376 71.3938 37.4571 70.8972 35.8768 70.8972H34.7878V67.2123C34.7878 65.1858 34.8279 62.9622 34.8769 62.2713L34.9661 61.015H50.5239H66.0815V62.6397C66.0815 63.5333 66.0409 65.7528 65.9911 67.5718L65.901 70.8793L62.7278 70.9225L59.5548 70.9658L58.6427 71.4151C57.5612 71.948 56.5386 72.9966 55.969 74.1571L55.5818 74.9461L55.5427 82.0679C55.5081 88.3824 55.5294 89.2692 55.7301 89.8913C56.2302 91.4402 57.2607 92.5944 58.7903 93.3191L59.6993 93.7498L64.0571 93.7913C66.6825 93.8162 68.415 93.8843 68.415 93.9628C68.415 94.0385 67.6359 94.093 66.5564 94.093C64.9719 94.093 64.6193 94.1332 64.1625 94.3663C62.2174 95.3586 62.2113 98.3144 64.1528 99.3048C64.785 99.6273 77.299 99.7459 78.1165 99.437C79.857 98.7794 80.3474 96.2749 79.0103 94.8709C78.3851 94.2143 77.8967 94.093 75.8784 94.093C74.7457 94.093 74.0423 94.0404 74.0423 93.9556C74.0423 93.8672 75.4979 93.8184 78.1349 93.8184C83.3027 93.8184 84.0139 93.6396 85.5734 91.9477C86.9815 90.42 87.0813 89.785 87.0813 82.3578C87.0813 73.9885 86.6991 72.7485 83.6846 71.3359L82.8952 70.9658L78.6059 70.9242L74.3167 70.8827L74.3172 69.14C74.3172 68.1815 74.358 65.9613 74.4077 64.206L74.4978 61.015L76.9809 61.0142C89.2049 61.0116 98.131 51.9934 96.5579 41.2353C95.573 34.5005 89.6455 28.4222 82.5118 26.8324C81.9567 26.7087 81.7378 26.6008 81.7864 26.4744C82.3326 25.0511 82.3917 20.0408 81.89 17.7114C79.4111 6.20271 67.1342 -1.58827 54.415 0.275406ZM30.9124 95.1117C31.6332 95.7724 31.6675 96.865 30.9885 97.5438C29.8468 98.6855 27.9938 97.9649 27.9938 96.3792C27.9938 94.7839 29.7311 94.0293 30.9124 95.1117Z" fill="url(#paint0_linear_283_915)"/>
<defs>
<linearGradient id="paint0_linear_283_915" x1="-5.19437e-07" y1="45.2899" x2="111.204" y2="69.5793" gradientUnits="userSpaceOnUse">
<stop stop-color="#98C25E"/>
<stop offset="1" stop-color="#54AFE8"/>
</linearGradient>
</defs>
</svg>
