<svg width="255" height="50" viewBox="0 0 255 50" fill="none" xmlns="http://www.w3.org/2000/svg">
<g clip-path="url(#clip0_283_806)">
<mask id="mask0_283_806" style="mask-type:luminance" maskUnits="userSpaceOnUse" x="0" y="-1" width="255" height="51">
<path fill-rule="evenodd" clip-rule="evenodd" d="M3.44215 38.7127V11.3927H0.274727V38.7127H3.44215ZM3.59905 5.43689V0.742445H0.119385V5.43689H3.59905ZM13.2846 23.9987C13.1898 22.2484 13.4222 20.4957 13.9697 18.8305C14.5209 17.2622 15.5486 15.9055 16.909 14.9501C18.2694 13.9948 19.8943 13.4885 21.5566 13.5023C26.6192 13.5023 28.6231 15.9877 28.6231 20.8857V38.7127H31.7937V20.8329C32.0096 18.6486 31.5295 16.452 30.422 14.557C29.4764 13.2553 28.2163 12.2145 26.7594 11.5319C25.3025 10.8492 23.6964 10.5469 22.091 10.6533C18.2944 10.6533 15.8167 12.4987 13.2846 15.1893V11.3912H10.1219V38.7127H13.2846V23.9987ZM39.3697 14.0304V38.7143H42.5278V14.0304H47.8094V11.3896H42.5278V8.01401C42.5278 5.52854 42.6334 2.84578 45.9018 2.84578C46.5457 2.85768 47.186 2.94527 47.8094 3.10675V0.206513C46.9376 0.0546827 46.0534 -0.0144918 45.1686 -9.16549e-05C40.9495 -9.16549e-05 39.3682 2.74325 39.3682 7.06798V11.3927H35.3106V14.0335L39.3697 14.0304ZM62.1864 39.4568C69.8323 39.4568 74.839 33.7092 74.839 25.0535C74.839 17.0363 70.7255 10.6548 62.1833 10.6548C53.7466 10.6548 49.5275 17.0891 49.5275 25.0535C49.5275 34.5993 55.2224 39.345 62.1833 39.4522L62.1864 39.4568ZM71.4665 25.0582C71.4665 30.913 68.8257 36.6094 62.1864 36.6094C56.128 36.6094 52.9062 31.8621 52.9062 25.0582C52.9062 19.1552 55.547 13.5069 62.1864 13.5069C68.8832 13.5069 71.4137 18.6223 71.4665 25.0582ZM87.3751 22.7902H104.043V16.0918H87.3736V7.54799H106.411V0.849632H79.4651V38.7127H87.3751V22.7902ZM131.413 18.0429C131.413 11.1333 124.19 9.92006 120.228 9.92006C114.481 9.92006 108.522 11.1333 107.678 19.7299H114.798C115.009 18.0942 115.641 15.8262 119.332 15.8262C121.23 15.8262 124.183 15.9815 124.183 19.0961C124.183 20.6791 122.759 21.1529 121.6 21.3113L114.956 22.3133C110.263 22.9983 106.784 25.7945 106.784 31.2796C106.784 37.0816 111.107 39.4553 115.327 39.4553C117.047 39.5046 118.756 39.1646 120.326 38.4606C121.896 37.7566 123.286 36.7069 124.393 35.39C124.468 36.5238 124.698 37.6419 125.078 38.7127H133.041V37.6051C132.145 37.2945 131.407 36.5504 131.407 33.2276L131.413 18.0429ZM124.19 28.645C124.188 32.0672 120.865 34.1752 117.597 34.1752C117.144 34.2049 116.689 34.1384 116.263 33.98C115.838 33.8215 115.45 33.5748 115.126 33.256C114.803 32.9372 114.55 32.5535 114.385 32.1301C114.221 31.7068 114.147 31.2533 114.17 30.7996C114.17 27.7409 116.438 27.0543 119.18 26.5805C120.95 26.4905 122.671 25.9649 124.19 25.0504V28.645ZM153.304 28.4897C153.243 29.789 152.693 31.0172 151.763 31.9273C150.834 32.8373 149.594 33.3619 148.294 33.3954C142.702 33.3954 142.599 27.337 142.599 24.2706C142.599 20.7894 143.812 16.1477 148.453 16.1477H148.822C151.987 16.1477 153.041 18.8911 153.357 20.6837H160.844C160.159 11.9286 152.881 9.92472 148.453 9.92472C138.961 9.92472 135.006 16.4118 135.006 25.4838C135.006 31.3868 137.431 39.4646 147.977 39.4646C158.259 39.4646 160.527 31.3946 160.791 28.4943L153.304 28.4897ZM172.877 3.06792H165.495V10.6626H161.699V15.9442H165.495V32.9651C165.495 36.6047 166.656 39.0234 173.035 39.0234H173.985C175.145 39.0234 176.305 38.9706 177.464 38.9178V33.3255C176.938 33.3783 176.41 33.4311 175.936 33.4311C172.93 33.4311 172.877 32.7989 172.877 31.1631V15.9209H177.464V10.6393H172.877V3.06792ZM206.787 24.6838C206.787 14.557 199.984 9.9154 192.444 9.9154C184.904 9.9154 178.101 14.557 178.101 24.6838C178.101 34.8105 184.904 39.4568 192.444 39.4568C199.984 39.4568 206.787 34.8152 206.787 24.6884V24.6838ZM199.194 24.6838C199.194 28.2706 198.139 33.2276 192.444 33.2276C186.749 33.2276 185.694 28.2691 185.694 24.6838C185.694 21.0985 186.749 16.14 192.444 16.14C198.139 16.14 199.194 21.0985 199.194 24.6838ZM209.501 38.7127H216.882V24.1106C216.882 21.0037 217.937 17.4122 223.685 17.4122C224.39 17.3934 225.095 17.4287 225.794 17.5179V10.0288C225.322 9.96737 224.846 9.9321 224.37 9.92317C219.888 9.92317 218.2 12.6665 216.671 15.5155H216.565V10.6626H209.499L209.501 38.7127ZM254.881 10.6533H247.076L241.329 31.3293H241.223L235.211 10.6533H226.978L237.327 39.8731C236.642 43.7241 235.165 44.0922 232.476 44.0922C231.999 44.0961 231.522 44.0607 231.051 43.9866V49.8896C232.106 49.9424 233.372 49.9952 234.374 49.9952C240.807 49.9952 241.756 48.6236 245.237 38.2343L254.881 10.6533Z" fill="white"/>
</mask>
<g mask="url(#mask0_283_806)">
<path d="M-9.72314 -9.84277H264.722V59.8406H-9.72314V-9.84277Z" fill="white"/>
</g>
</g>
<defs>
<clipPath id="clip0_283_806">
<rect width="254.761" height="50" fill="white" transform="translate(0.119385)"/>
</clipPath>
</defs>
</svg>
