<svg width="41" height="40" viewBox="0 0 41 40" fill="none" xmlns="http://www.w3.org/2000/svg">
<path fill-rule="evenodd" clip-rule="evenodd" d="M19.3742 0.0205993C19.0733 0.034804 17.9197 0.153351 17.8197 0.180402C17.785 0.189802 17.5109 0.217376 17.2105 0.241712C16.5825 0.292473 16.3008 0.340414 15.9593 0.45447C15.8258 0.499068 15.5139 0.565183 15.2661 0.60153C14.9921 0.641638 14.7088 0.713497 14.5426 0.785043C14.3924 0.84959 14.1561 0.925314 14.0174 0.953306C13.8788 0.981297 13.6757 1.04919 13.5662 1.10423C13.4566 1.15927 13.2392 1.23343 13.083 1.26915C12.9268 1.30477 12.7023 1.38791 12.584 1.45381C12.4658 1.51972 12.2579 1.60568 12.1219 1.64474C11.9859 1.68391 11.8215 1.76015 11.7563 1.81436C11.6913 1.86847 11.5309 1.94367 11.4001 1.98158C11.2692 2.01939 11.0956 2.10201 11.0143 2.1653C10.933 2.22849 10.7686 2.31153 10.6491 2.34975C10.5295 2.38809 10.4078 2.44804 10.3786 2.48303C10.3494 2.51802 10.231 2.59426 10.1155 2.65244C10 2.71062 9.81235 2.82196 9.69849 2.89987C9.58464 2.97779 9.46868 3.0415 9.44074 3.0415C9.4128 3.0415 9.31218 3.10783 9.21702 3.18877C9.12175 3.26982 8.97953 3.36278 8.90086 3.39547C8.76705 3.45114 8.68228 3.51183 8.19849 3.8988C8.09451 3.98194 7.94977 4.09098 7.87698 4.14112C7.51303 4.39137 7.37785 4.49341 7.25822 4.6082C7.18638 4.67713 7.08145 4.76539 7.02504 4.80425C6.89291 4.89522 5.99476 5.74019 5.66138 6.08695C5.01636 6.75813 4.79704 6.99647 4.6584 7.17758C4.59674 7.25801 4.42301 7.47421 4.27239 7.65804C4.12167 7.84186 3.99804 8.01221 3.99773 8.03665C3.99741 8.06109 3.9387 8.1363 3.86717 8.20377C3.79575 8.27124 3.70321 8.39229 3.66162 8.47272C3.61992 8.55314 3.54366 8.65654 3.49198 8.7025C3.44031 8.74846 3.36195 8.8692 3.31784 8.97072C3.27372 9.07234 3.17226 9.22745 3.09222 9.3155C3.01219 9.40354 2.94675 9.50099 2.94675 9.53191C2.94675 9.56283 2.88751 9.66957 2.81504 9.769C2.74267 9.86843 2.64866 10.0278 2.60623 10.1232C2.56379 10.2185 2.48848 10.3479 2.43891 10.4106C2.38922 10.4734 2.3116 10.6223 2.26623 10.7416C2.22096 10.8609 2.14722 10.9977 2.10248 11.0455C2.05763 11.0934 1.98431 11.2365 1.93936 11.3635C1.89451 11.4906 1.79095 11.724 1.70923 11.8823C1.62751 12.0406 1.5606 12.1965 1.5605 12.2288C1.56039 12.261 1.49422 12.4049 1.41345 12.5485C1.33268 12.6921 1.24119 12.9289 1.2101 13.0748C1.17901 13.2206 1.10465 13.4354 1.04488 13.5519C0.985013 13.6686 0.907602 13.913 0.872731 14.0951C0.837964 14.2772 0.763074 14.5296 0.706355 14.6559C0.649742 14.7823 0.571701 15.0643 0.533048 15.2826C0.451016 15.7458 0.367093 16.1319 0.279599 16.4487C0.165741 16.8607 0.00451233 18.9248 0.000100866 20.0265C-0.0046257 21.2339 0.157548 23.1107 0.321298 23.7428C0.374865 23.9496 0.457003 24.3444 0.503743 24.6201C0.552164 24.9056 0.634827 25.2214 0.695747 25.3536C0.754566 25.4812 0.832712 25.7428 0.869369 25.935C0.906027 26.1272 0.989004 26.3894 1.05381 26.5176C1.11862 26.6459 1.1934 26.8529 1.22008 26.9775C1.24665 27.1022 1.32259 27.2996 1.38877 27.4162C1.45483 27.5328 1.53907 27.7334 1.57594 27.8618C1.6127 27.9903 1.68213 28.1451 1.73013 28.2059C1.77813 28.2666 1.85628 28.4307 1.90375 28.5705C1.95133 28.7104 2.05416 28.9305 2.13231 29.0596C2.21056 29.1887 2.27453 29.3165 2.27453 29.3433C2.27453 29.3703 2.33019 29.4619 2.39815 29.547C2.46611 29.632 2.55402 29.7897 2.59352 29.8974C2.63301 30.0051 2.71672 30.1596 2.77974 30.2408C2.84266 30.322 2.94171 30.4818 2.9999 30.5959C3.05809 30.71 3.14558 30.8392 3.19432 30.883C3.24305 30.9267 3.28286 30.9867 3.28286 31.0162C3.28286 31.0457 3.35502 31.1527 3.44314 31.2541C3.53137 31.3554 3.62916 31.5022 3.66067 31.5803C3.71109 31.706 3.86643 31.9062 4.17524 32.2441C4.22744 32.3012 4.30485 32.403 4.34718 32.4701C4.50431 32.7194 5.3949 33.722 5.78469 34.0882C5.92218 34.2175 6.21438 34.4928 6.43391 34.7002C6.8198 35.0646 7.05277 35.2659 7.47344 35.5989C7.9213 35.9534 8.07277 36.0735 8.22643 36.196C8.31508 36.2667 8.47578 36.3757 8.58355 36.4381C8.69132 36.5006 8.8036 36.5805 8.83301 36.6157C8.86242 36.651 8.97386 36.7238 9.08078 36.7777C9.18771 36.8316 9.3023 36.9084 9.33549 36.9483C9.36869 36.9883 9.49987 37.0665 9.62697 37.1222C9.75406 37.1778 9.89596 37.2583 9.94218 37.301C9.9885 37.3437 10.1303 37.4281 10.2573 37.4886C10.3844 37.549 10.5525 37.6442 10.6311 37.7C10.7098 37.7557 10.8432 37.82 10.9277 37.8426C11.0123 37.8652 11.1699 37.9421 11.2781 38.0133C11.3863 38.0845 11.5715 38.1682 11.6897 38.1992C11.8079 38.2302 11.9743 38.3037 12.0595 38.3624C12.1448 38.4211 12.3175 38.4991 12.4437 38.5356C12.5698 38.5723 12.7515 38.6474 12.8475 38.7025C12.9437 38.7577 13.1811 38.8398 13.3755 38.8848C13.5697 38.9298 13.822 39.0133 13.936 39.0703C14.0502 39.1272 14.2758 39.1961 14.4376 39.2232C14.5993 39.2504 14.8689 39.3265 15.0368 39.3923C15.2417 39.4727 15.5176 39.5345 15.8771 39.5801C16.1714 39.6176 16.5163 39.6837 16.6436 39.7272C16.9602 39.8352 17.3517 39.8791 18.4542 39.9302C18.9717 39.9541 19.537 39.9814 19.7103 39.9908C20.612 40.0395 22.8896 39.8864 23.4393 39.7402C23.6531 39.6834 24.0674 39.6077 24.3599 39.572C24.7214 39.5279 24.9669 39.4739 25.1264 39.4035C25.2555 39.3465 25.503 39.2709 25.6763 39.2357C25.8496 39.2004 26.1143 39.1189 26.2645 39.0546C26.4147 38.9903 26.651 38.9148 26.7897 38.8868C26.9283 38.8589 27.1457 38.7826 27.2728 38.7172C27.3999 38.6519 27.6242 38.5614 27.7711 38.5161C27.9182 38.4709 28.0803 38.3946 28.1317 38.3466C28.1831 38.2987 28.3523 38.2244 28.5077 38.1815C28.6632 38.1386 28.8327 38.0641 28.8844 38.0157C28.9361 37.9675 29.09 37.8897 29.2265 37.8431C29.3629 37.7964 29.5132 37.7221 29.5606 37.678C29.6079 37.634 29.7411 37.5532 29.8567 37.4986C30.0965 37.3853 30.3431 37.2394 30.7741 36.9556C30.9396 36.8465 31.0955 36.7572 31.1202 36.7571C31.1451 36.7569 31.2113 36.7079 31.2673 36.6482C31.3234 36.5885 31.4543 36.494 31.5582 36.4382C31.6622 36.3824 31.8324 36.2709 31.9364 36.1905C32.0404 36.11 32.2161 35.9742 32.3269 35.8887C32.5915 35.6846 32.9248 35.4145 33.1338 35.2348C33.4782 34.9387 34.7513 33.7388 34.7513 33.7104C34.7513 33.6941 34.86 33.5682 34.9929 33.4306C35.1258 33.2929 35.3006 33.0988 35.3815 32.9991C35.4624 32.8994 35.5853 32.7594 35.6546 32.688C35.7763 32.5626 35.8234 32.5006 36.2111 31.957C36.3092 31.8193 36.4088 31.6949 36.4325 31.6803C36.4561 31.6658 36.5203 31.5659 36.5751 31.4585C36.63 31.3509 36.7155 31.2265 36.7649 31.182C36.8145 31.1375 36.8932 31.0153 36.9398 30.9104C36.9864 30.8056 37.0687 30.6728 37.1226 30.6154C37.1765 30.5579 37.2532 30.4451 37.2932 30.3647C37.3331 30.2843 37.4086 30.1715 37.4609 30.114C37.5131 30.0566 37.5872 29.9136 37.6255 29.7962C37.6637 29.6789 37.741 29.5399 37.7973 29.4873C37.8536 29.4348 37.9287 29.3047 37.9642 29.1982C37.9998 29.0917 38.0725 28.9393 38.1257 28.8595C38.1789 28.7797 38.2617 28.6104 38.3096 28.4833C38.3575 28.3561 38.4436 28.1834 38.5008 28.0995C38.5582 28.0155 38.637 27.8204 38.676 27.6659C38.715 27.5115 38.7925 27.3078 38.8482 27.2132C38.9039 27.1188 38.9798 26.9102 39.017 26.7499C39.0541 26.5896 39.1282 26.3832 39.1818 26.2913C39.2353 26.1994 39.3278 25.9041 39.387 25.635C39.4464 25.366 39.5216 25.0934 39.5542 25.0293C39.6325 24.8755 39.6935 24.5956 39.7709 24.0352C39.8058 23.7825 39.8728 23.4548 39.9199 23.3071C40.1278 22.654 40.2205 20.2738 40.1089 18.4503C40.031 17.1756 40.0221 17.0993 39.897 16.6373C39.8406 16.4287 39.7649 16.0354 39.7291 15.7632C39.6906 15.471 39.6209 15.1617 39.5592 15.008C39.5015 14.8648 39.4261 14.6002 39.3916 14.4198C39.3571 14.2395 39.2725 13.9756 39.2037 13.8333C39.1349 13.6912 39.05 13.4389 39.0148 13.273C38.9797 13.1069 38.8971 12.8754 38.8313 12.7586C38.7655 12.6417 38.6889 12.4521 38.661 12.3372C38.6331 12.2223 38.5659 12.0704 38.5117 11.9996C38.4574 11.9287 38.3822 11.7654 38.3444 11.6365C38.3068 11.5077 38.2292 11.3337 38.1719 11.2498C38.1146 11.1659 38.0101 10.9814 37.9395 10.8399C37.6715 10.3021 37.5418 10.0716 37.439 9.95043C37.3805 9.8816 37.307 9.74769 37.2756 9.65296C37.2442 9.55823 37.1455 9.39289 37.0562 9.28552C36.967 9.17815 36.894 9.07224 36.894 9.0502C36.894 9.01093 36.7367 8.77875 36.5057 8.477C36.4423 8.39428 36.3383 8.25066 36.2746 8.15802C36.1597 7.99091 36.0203 7.81481 35.6966 7.42815C35.6042 7.31775 35.434 7.11042 35.3185 6.96744C35.203 6.82445 35.0328 6.62955 34.9404 6.53419C34.8479 6.43883 34.667 6.24853 34.5382 6.11118C34.2126 5.764 33.3446 4.96081 33.0918 4.77281C32.9762 4.68685 32.8116 4.55827 32.7259 4.48704C32.6402 4.41581 32.4832 4.29173 32.377 4.2113C32.2708 4.13088 32.1045 3.99708 32.0076 3.91405C31.9106 3.83091 31.7746 3.73189 31.7053 3.69408C31.5489 3.60865 31.2009 3.37229 31.0331 3.23744C30.9637 3.18177 30.8058 3.08537 30.682 3.02323C30.5582 2.96108 30.3805 2.85517 30.287 2.78791C30.1936 2.72054 30.0963 2.6655 30.0708 2.6655C30.0453 2.6655 29.9324 2.60043 29.8198 2.52084C29.7072 2.44125 29.5466 2.35393 29.4628 2.32688C29.3791 2.29972 29.2349 2.22578 29.1424 2.16238C29.05 2.09898 28.8724 2.01459 28.7477 1.9749C28.623 1.93521 28.4569 1.85938 28.3783 1.80642C28.2999 1.75347 28.1372 1.67785 28.0168 1.63827C27.8965 1.59879 27.694 1.51554 27.5669 1.45329C27.4398 1.39104 27.213 1.30727 27.0628 1.26727C26.9126 1.22716 26.6946 1.14998 26.5785 1.09577C26.4624 1.04156 26.2355 0.969495 26.0744 0.935759C25.9131 0.901918 25.6773 0.82703 25.5503 0.769376C25.4189 0.709632 25.1364 0.637355 24.8956 0.601739C24.6626 0.567272 24.3727 0.500217 24.2515 0.452694C24.1279 0.404231 23.7969 0.339265 23.4987 0.304902C23.2059 0.271166 22.6261 0.204529 22.2101 0.157006C21.3951 0.0636312 20.3059 -0.00979465 19.8994 0.00106778C19.7607 0.00472341 19.5244 0.0134969 19.3742 0.0205993ZM13.229 8.73979C13.3961 8.80162 13.7053 8.88956 13.916 8.93531C14.1266 8.98095 14.377 9.05803 14.4724 9.10639C14.5679 9.15486 14.7772 9.23883 14.9375 9.29304C15.0978 9.34735 15.2596 9.41911 15.2969 9.45274C15.3341 9.48637 15.4688 9.55959 15.5961 9.61557C15.7233 9.67145 15.8537 9.74884 15.8859 9.78738C15.9181 9.82593 16.0183 9.89507 16.1088 9.94092C16.6637 10.2224 17.7212 11.2966 18.0232 11.8857C18.0726 11.982 18.1604 12.1303 18.2184 12.2152C18.2763 12.3002 18.3445 12.4469 18.37 12.5414C18.3954 12.636 18.4701 12.826 18.5358 12.9639C18.7453 13.4025 18.7925 13.9712 18.8032 16.1809C18.8159 18.8047 18.8173 18.8019 17.8288 18.1386C17.753 18.0877 17.5628 18.0171 17.4061 17.9816C17.2495 17.9462 17.0173 17.87 16.8903 17.8121C16.7633 17.7544 16.4526 17.6719 16.1996 17.629C15.9468 17.5861 15.6621 17.5115 15.567 17.4633C15.4555 17.4066 15.216 17.3536 14.8932 17.314C14.6178 17.2802 14.2396 17.2137 14.0528 17.1663C13.8661 17.1189 13.4453 17.0416 13.1178 16.9946C12.3809 16.8889 12.1243 16.8411 12.0311 16.7922C11.9913 16.7713 11.7337 16.7052 11.4586 16.6452C11.1728 16.583 10.8817 16.4917 10.7795 16.4321C10.6811 16.3747 10.4815 16.3002 10.3362 16.2665C10.1907 16.2328 10.0236 16.1667 9.96486 16.1196C9.90615 16.0724 9.75626 15.987 9.6319 15.9297C9.42498 15.8343 9.19202 15.661 8.97575 15.4416C8.92953 15.3947 8.84719 15.3163 8.79278 15.2673C8.52967 15.0304 8.28914 14.6952 8.18904 14.4262C8.14629 14.3113 8.06342 14.1278 8.00491 14.0183C7.79526 13.6261 7.71859 12.1493 7.86228 11.2719C8.01888 10.3156 9.01734 9.15924 9.90006 8.91191C10.0387 8.87317 10.2137 8.80381 10.2888 8.75796C10.6249 8.55304 12.6894 8.54029 13.229 8.73979ZM30.0098 8.75786C30.1634 8.8318 30.3846 8.92058 30.5015 8.95516C30.6184 8.98962 30.7669 9.0618 30.8315 9.11548C30.8961 9.16906 31.0058 9.24197 31.0751 9.27748C31.3151 9.40041 31.9003 10.0215 32.0091 10.2686C32.0648 10.3953 32.1557 10.5649 32.211 10.6455C32.4704 11.0228 32.6076 12.3703 32.4664 13.1519C32.3247 13.9357 32.3056 14.0104 32.2106 14.1546C32.1576 14.235 32.0806 14.3948 32.0395 14.5097C31.9983 14.6246 31.9139 14.775 31.8518 14.844C31.7897 14.9129 31.712 15.0097 31.679 15.0592C31.5524 15.2493 30.8042 15.8705 30.6271 15.9326C30.5282 15.9673 30.409 16.0303 30.362 16.0727C30.2459 16.1774 30.1456 16.2226 29.8987 16.2818C29.7832 16.3093 29.6196 16.3769 29.5352 16.4319C29.4432 16.4917 29.2347 16.5592 29.0145 16.6002C28.8125 16.6378 28.5318 16.7054 28.3907 16.7504C28.0239 16.8674 27.8296 16.9069 27.1801 16.9967C26.8634 17.0406 26.4569 17.1138 26.2768 17.1594C26.0967 17.2051 25.7255 17.2716 25.4518 17.3072C25.1645 17.3446 24.8449 17.4151 24.6956 17.4741C24.5533 17.5303 24.2478 17.6061 24.0167 17.6427C23.765 17.6825 23.4872 17.7584 23.3235 17.8321C23.1733 17.8997 22.9559 17.9749 22.8404 17.9992C22.7248 18.0234 22.5263 18.106 22.3992 18.1828C22.2721 18.2595 22.1209 18.336 22.0631 18.3529C22.0053 18.3699 21.9079 18.4303 21.8465 18.4875C21.4937 18.8156 21.4627 18.6025 21.4866 16.0081C21.507 13.7805 21.5322 13.4078 21.682 13.1158C21.7266 13.029 21.8031 12.8345 21.8522 12.6835C21.9012 12.5324 21.9775 12.3765 22.0215 12.3368C22.0656 12.2972 22.1325 12.1723 22.1702 12.0595C22.2079 11.9466 22.2871 11.797 22.3463 11.7272C22.4054 11.6573 22.503 11.5271 22.5632 11.4381C22.7387 11.1782 23.3963 10.4898 23.6061 10.3463C23.7119 10.2738 23.8325 10.1808 23.8739 10.1397C23.9154 10.0984 24.0117 10.0335 24.0881 9.99513C24.1643 9.9569 24.2835 9.87428 24.3529 9.81151C24.4222 9.74884 24.5451 9.67291 24.6259 9.64294C24.7068 9.61285 24.8596 9.53483 24.9654 9.46935C25.0713 9.40396 25.2604 9.31466 25.3856 9.27079C25.5109 9.22703 25.7184 9.1442 25.847 9.08665C25.9754 9.0291 26.2496 8.95066 26.4562 8.91233C26.6627 8.87411 26.9168 8.80486 27.0207 8.75869C27.3031 8.63325 27.6532 8.6039 28.7433 8.61403L29.7306 8.62323L30.0098 8.75786ZM21.8868 20.9216C21.9817 20.99 22.1768 21.0933 22.3204 21.1514C22.464 21.2094 22.612 21.2843 22.6493 21.3179C22.6866 21.3514 22.8827 21.4172 23.085 21.4642C23.2874 21.5111 23.5299 21.5885 23.624 21.6362C23.7181 21.6839 24.0087 21.7593 24.2697 21.8037C24.5308 21.8481 24.9216 21.9387 25.1383 22.005C25.4002 22.0852 25.7502 22.1486 26.1819 22.1941C26.5662 22.2346 26.9691 22.3043 27.1678 22.3648C27.3526 22.4211 27.7213 22.4945 27.9871 22.5281C28.2942 22.5668 28.5545 22.626 28.7013 22.6907C28.8284 22.7467 29.0827 22.8233 29.2664 22.861C29.4501 22.8989 29.6666 22.9685 29.7473 23.0159C29.8282 23.0634 30.0171 23.1481 30.1672 23.2043C30.3172 23.2605 30.5013 23.3529 30.5762 23.4097C30.6511 23.4665 30.7314 23.513 30.7547 23.513C30.8271 23.513 31.5951 24.2045 31.7594 24.4177C32.2038 24.9942 32.4483 25.7575 32.5486 26.881C32.5739 27.1647 32.562 27.2633 32.4023 28.0878C32.2391 28.9309 31.5595 29.9067 30.9461 30.1789C30.829 30.2309 30.6626 30.321 30.5764 30.3792C30.4901 30.4374 30.3119 30.5057 30.1802 30.5311C30.0485 30.5565 29.7989 30.6277 29.6256 30.6893C29.1937 30.8428 28.1583 30.8517 27.6482 30.7061C27.4734 30.6562 27.1146 30.5871 26.8509 30.5525C26.4983 30.5062 26.3031 30.4568 26.1134 30.3659C25.9717 30.2978 25.7633 30.2217 25.6505 30.1965C25.5375 30.1715 25.3601 30.0969 25.2562 30.0309C25.1522 29.9649 24.9609 29.8716 24.8312 29.8236C24.7015 29.7755 24.5639 29.7017 24.5254 29.6594C24.4869 29.6171 24.3756 29.5478 24.2781 29.5055C24.0485 29.406 23.624 29.0597 23.1286 28.5682C22.7432 28.1857 22.6333 28.0639 22.5451 27.9206C22.5027 27.8517 22.4256 27.7483 22.3738 27.6909C22.322 27.6334 22.2466 27.5018 22.206 27.3984C22.1656 27.295 22.0891 27.158 22.0361 27.0938C21.9831 27.0297 21.8998 26.8441 21.851 26.6816C21.8023 26.519 21.7248 26.3138 21.6786 26.2258C21.477 25.8412 21.3858 21.0945 21.5759 20.8854C21.6779 20.7732 21.6813 20.7736 21.8868 20.9216ZM18.7231 20.9229C18.9383 21.1593 18.8008 25.8711 18.5652 26.3322C18.5185 26.4237 18.4374 26.6239 18.385 26.7772C18.1675 27.4132 17.5448 28.2517 16.8349 28.8649C16.2882 29.337 16.0963 29.4873 16.0398 29.4873C16.0114 29.4873 15.8586 29.5719 15.7003 29.6753C15.542 29.7787 15.3944 29.8633 15.3725 29.8633C15.3505 29.8633 15.2256 29.9282 15.0951 30.0075C14.9645 30.0868 14.7348 30.1794 14.5846 30.2133C14.4344 30.2474 14.2264 30.3225 14.1225 30.3804C13.9897 30.4541 13.8146 30.4998 13.5343 30.534C13.3147 30.5606 12.9461 30.6307 12.715 30.6896C12.1042 30.8454 11.1432 30.8454 10.6773 30.6895C10.504 30.6317 10.2332 30.5606 10.0755 30.5318C9.90174 30.5001 9.74439 30.4426 9.67633 30.386C9.61457 30.3346 9.4795 30.2499 9.37635 30.1979C8.62336 29.8177 7.96122 28.8176 7.83434 27.8689C7.72027 27.0154 7.81018 25.7232 8.01016 25.3425C8.06709 25.2342 8.14944 25.0517 8.19335 24.9369C8.33063 24.5775 9.11198 23.7307 9.47645 23.546C9.57077 23.4983 9.70469 23.4172 9.77401 23.366C9.84334 23.3148 10.0092 23.233 10.1425 23.1843C10.2759 23.1356 10.475 23.0504 10.585 22.9949C10.695 22.9395 10.8789 22.8809 10.9937 22.8646C11.1086 22.8482 11.3307 22.7797 11.4876 22.7122C11.6872 22.6264 11.9141 22.5722 12.2451 22.5313C12.7577 22.468 13.0841 22.4039 13.1959 22.3444C13.2351 22.3236 13.4832 22.2773 13.7473 22.2417C14.0114 22.2061 14.3757 22.1567 14.5569 22.132C14.738 22.1073 15.0594 22.0343 15.2711 21.9696C15.4828 21.9051 15.8129 21.8313 16.0046 21.8058C16.2071 21.779 16.4714 21.7083 16.6348 21.6373C16.7897 21.57 17.0393 21.492 17.1895 21.4639C17.3427 21.4353 17.541 21.3623 17.6414 21.2977C17.7399 21.2343 17.9068 21.157 18.0123 21.1261C18.1179 21.0951 18.2642 21.0186 18.3375 20.9562C18.4973 20.8202 18.6199 20.8095 18.7231 20.9229Z" fill="#A4CC64"/>
</svg>
