<svg width="872" height="167" viewBox="0 0 872 167" fill="none" xmlns="http://www.w3.org/2000/svg">
<path fill-rule="evenodd" clip-rule="evenodd" d="M80.5718 0.086002C79.3204 0.145307 74.5229 0.640239 74.107 0.753179C73.9629 0.792425 72.8228 0.907546 71.5735 1.00915C68.9618 1.22108 67.7903 1.42123 66.3702 1.89741C65.815 2.08361 64.5177 2.35964 63.4873 2.51139C62.3481 2.67884 61.1696 2.97885 60.4785 3.27755C59.8539 3.54704 58.8711 3.86319 58.2945 3.98005C57.7179 4.09692 56.8735 4.38036 56.418 4.61016C55.9624 4.83997 55.0582 5.14957 54.4086 5.29871C53.7591 5.44741 52.8252 5.79451 52.3333 6.06967C51.8419 6.34483 50.977 6.70371 50.4114 6.86679C49.8461 7.03032 49.1621 7.34864 48.8913 7.57496C48.6209 7.80084 47.9539 8.11481 47.4096 8.2731C46.8653 8.43096 46.1433 8.77588 45.8052 9.04014C45.4671 9.30396 44.7835 9.65063 44.2864 9.81022C43.7893 9.97026 43.2831 10.2206 43.1616 10.3666C43.0402 10.5127 42.5479 10.8311 42.0674 11.0739C41.5874 11.3168 40.8068 11.7817 40.3333 12.107C39.8598 12.4323 39.3775 12.6983 39.2614 12.6983C39.1452 12.6983 38.7267 12.9752 38.331 13.3131C37.9348 13.6515 37.3433 14.0396 37.0162 14.1761C36.4597 14.4085 36.1071 14.6619 34.0952 16.2775C33.6628 16.6246 33.0608 17.0798 32.7581 17.2892C31.2446 18.334 30.6824 18.76 30.1849 19.2392C29.8861 19.527 29.4497 19.8955 29.2152 20.0577C28.6657 20.4375 24.9305 23.9653 23.5441 25.413C20.8616 28.2152 19.9495 29.2103 19.373 29.9664C19.1165 30.3022 18.3941 31.2048 17.7677 31.9723C17.1409 32.7398 16.6267 33.451 16.6254 33.553C16.6241 33.6551 16.3799 33.969 16.0825 34.2507C15.7854 34.5324 15.4006 35.0378 15.2276 35.3736C15.0542 35.7094 14.7371 36.1411 14.5222 36.3329C14.3073 36.5248 13.9814 37.0289 13.7979 37.4527C13.6145 37.877 13.1925 38.5246 12.8597 38.8922C12.5268 39.2598 12.2547 39.6666 12.2547 39.7957C12.2547 39.9248 12.0083 40.3705 11.7069 40.7856C11.406 41.2007 11.015 41.8661 10.8386 42.2643C10.6621 42.6624 10.3489 43.2027 10.1427 43.4643C9.9361 43.7264 9.6133 44.3482 9.4246 44.8462C9.23633 45.3442 8.92969 45.9154 8.74361 46.1152C8.55709 46.3149 8.2522 46.9123 8.06525 47.4425C7.87873 47.9732 7.44803 48.9478 7.10819 49.6085C6.76836 50.2695 6.49011 50.9206 6.48967 51.0553C6.48924 51.1896 6.21404 51.7905 5.87814 52.3901C5.54223 52.9897 5.16177 53.9783 5.03247 54.5874C4.90318 55.1962 4.59392 56.0927 4.34537 56.5794C4.09639 57.0665 3.77446 58.0869 3.62944 58.8469C3.48485 59.6074 3.17341 60.6609 2.93753 61.1886C2.70209 61.7162 2.37754 62.8936 2.21679 63.805C1.87565 65.7389 1.52663 67.3506 1.16277 68.6732C0.689269 70.3934 0.0187655 79.0109 0.000419471 83.6105C-0.019237 88.6514 0.655198 96.4871 1.33619 99.1261C1.55896 99.9895 1.90054 101.638 2.09492 102.789C2.29629 103.981 2.64006 105.299 2.89341 105.851C3.13803 106.384 3.46301 107.476 3.61546 108.279C3.76791 109.081 4.11299 110.176 4.3825 110.711C4.65201 111.247 4.96302 112.111 5.07397 112.631C5.18448 113.152 5.5003 113.976 5.77549 114.463C6.05024 114.95 6.40056 115.787 6.55388 116.323C6.70677 116.86 6.9955 117.506 7.19512 117.76C7.39474 118.013 7.71973 118.698 7.91717 119.282C8.11504 119.866 8.54268 120.785 8.86767 121.324C9.19309 121.863 9.45911 122.396 9.45911 122.508C9.45911 122.621 9.69062 123.003 9.97323 123.359C10.2558 123.714 10.6215 124.372 10.7857 124.822C10.9499 125.271 11.2981 125.916 11.5602 126.255C11.8218 126.594 12.2337 127.261 12.4757 127.738C12.7177 128.214 13.0816 128.754 13.2843 128.936C13.4869 129.119 13.6525 129.369 13.6525 129.493C13.6525 129.616 13.9526 130.063 14.3191 130.486C14.686 130.909 15.0926 131.522 15.2237 131.848C15.4334 132.373 16.0794 133.208 17.3636 134.619C17.5807 134.858 17.9026 135.282 18.0787 135.563C18.7322 136.604 22.4359 140.789 24.0569 142.318C24.6287 142.858 25.8439 144.008 26.7568 144.873C28.3616 146.395 29.3305 147.235 31.0799 148.625C32.9425 150.105 33.5723 150.607 34.2114 151.118C34.5801 151.414 35.2484 151.868 35.6965 152.129C36.1447 152.39 36.6117 152.724 36.734 152.871C36.8563 153.018 37.3197 153.322 37.7644 153.547C38.2091 153.772 38.6856 154.092 38.8237 154.259C38.9617 154.426 39.5073 154.753 40.0358 154.985C40.5644 155.217 41.1545 155.553 41.3467 155.732C41.5393 155.91 42.129 156.262 42.6571 156.515C43.1857 156.767 43.885 157.164 44.2117 157.397C44.5389 157.63 45.0936 157.898 45.4453 157.993C45.7969 158.087 46.4526 158.408 46.9025 158.706C47.3524 159.003 48.1225 159.352 48.6143 159.482C49.1057 159.611 49.7977 159.918 50.1519 160.163C50.5066 160.408 51.2251 160.734 51.7498 160.886C52.2744 161.039 53.03 161.353 53.4293 161.583C53.829 161.813 54.8166 162.156 55.6247 162.344C56.4324 162.532 57.4816 162.88 57.956 163.119C58.4308 163.356 59.369 163.644 60.0417 163.757C60.7144 163.87 61.8357 164.188 62.5337 164.463C63.3859 164.799 64.5334 165.056 66.0282 165.247C67.2522 165.403 68.6866 165.68 69.2161 165.861C70.5326 166.312 72.1606 166.495 76.7458 166.709C78.898 166.808 81.2489 166.922 81.9696 166.962C85.7196 167.165 95.1914 166.526 97.4772 165.915C98.3666 165.678 100.089 165.362 101.306 165.213C102.809 165.029 103.83 164.803 104.494 164.51C105.031 164.271 106.06 163.956 106.78 163.809C107.501 163.662 108.602 163.321 109.227 163.053C109.851 162.784 110.834 162.469 111.411 162.352C111.987 162.236 112.891 161.917 113.42 161.644C113.948 161.372 114.881 160.994 115.492 160.805C116.104 160.616 116.778 160.298 116.992 160.097C117.205 159.897 117.909 159.587 118.556 159.408C119.202 159.229 119.907 158.917 120.122 158.716C120.337 158.514 120.977 158.19 121.545 157.995C122.112 157.8 122.737 157.49 122.934 157.306C123.131 157.122 123.685 156.785 124.165 156.557C125.163 156.083 126.188 155.474 127.981 154.29C128.669 153.834 129.317 153.461 129.42 153.461C129.524 153.46 129.799 153.256 130.032 153.006C130.265 152.757 130.809 152.363 131.242 152.13C131.674 151.896 132.382 151.431 132.814 151.095C133.247 150.759 133.978 150.192 134.438 149.835C135.539 148.983 136.925 147.855 137.794 147.105C139.226 145.869 144.521 140.86 144.521 140.741C144.521 140.673 144.973 140.147 145.525 139.573C146.078 138.998 146.805 138.187 147.142 137.771C147.478 137.355 147.989 136.771 148.277 136.472C148.784 135.949 148.979 135.69 150.592 133.42C151 132.846 151.414 132.326 151.512 132.265C151.611 132.205 151.878 131.788 152.106 131.339C152.334 130.89 152.689 130.371 152.895 130.185C153.101 129.999 153.428 129.489 153.622 129.051C153.816 128.613 154.158 128.059 154.382 127.819C154.606 127.579 154.926 127.108 155.092 126.773C155.258 126.437 155.572 125.966 155.789 125.726C156.006 125.486 156.315 124.889 156.474 124.399C156.633 123.909 156.954 123.329 157.188 123.11C157.422 122.89 157.735 122.347 157.882 121.903C158.03 121.458 158.333 120.822 158.554 120.488C158.775 120.155 159.119 119.448 159.319 118.918C159.518 118.387 159.876 117.666 160.114 117.315C160.353 116.965 160.68 116.15 160.843 115.505C161.005 114.861 161.327 114.01 161.559 113.615C161.79 113.221 162.106 112.35 162.261 111.681C162.415 111.011 162.723 110.15 162.946 109.766C163.169 109.382 163.553 108.15 163.799 107.026C164.046 105.903 164.359 104.765 164.495 104.497C164.82 103.855 165.074 102.687 165.396 100.347C165.541 99.2918 165.82 97.9239 166.015 97.3073C166.88 94.5806 167.266 84.6431 166.802 77.0299C166.478 71.7082 166.44 71.3894 165.92 69.4607C165.686 68.5899 165.371 66.9477 165.222 65.8113C165.062 64.5916 164.772 63.3 164.515 62.6585C164.276 62.0607 163.962 60.9557 163.819 60.2026C163.675 59.45 163.323 58.3481 163.037 57.7541C162.751 57.1607 162.398 56.1076 162.251 55.4147C162.105 54.7213 161.762 53.755 161.488 53.267C161.215 52.7791 160.896 51.9876 160.78 51.508C160.664 51.0283 160.384 50.3938 160.159 50.0982C159.933 49.8025 159.62 49.1205 159.464 48.5824C159.307 48.0447 158.984 47.3183 158.746 46.9681C158.508 46.6175 158.073 45.8474 157.78 45.2565C156.665 43.0113 156.126 42.0489 155.698 41.543C155.455 41.2557 155.149 40.6966 155.019 40.3011C154.888 39.9056 154.477 39.2153 154.106 38.767C153.735 38.3188 153.432 37.8766 153.432 37.7846C153.432 37.6206 152.777 36.6513 151.817 35.3915C151.553 35.0461 151.121 34.4465 150.856 34.0597C150.378 33.362 149.798 32.6268 148.452 31.0125C148.068 30.5516 147.36 29.686 146.88 29.089C146.399 28.4921 145.691 27.6784 145.307 27.2803C144.923 26.8821 144.17 26.0876 143.635 25.5142C142.28 24.0647 138.671 20.7114 137.619 19.9265C137.139 19.5676 136.454 19.0308 136.098 18.7334C135.741 18.436 135.088 17.918 134.647 17.5822C134.205 17.2464 133.514 16.6878 133.11 16.3412C132.707 15.994 132.142 15.5807 131.853 15.4228C131.203 15.0661 129.756 14.0793 129.058 13.5163C128.769 13.2839 128.112 12.8814 127.598 12.622C127.083 12.3625 126.344 11.9203 125.955 11.6395C125.567 11.3583 125.162 11.1284 125.056 11.1284C124.95 11.1284 124.48 10.8568 124.012 10.5245C123.544 10.1922 122.876 9.82767 122.527 9.71473C122.179 9.60135 121.58 9.29262 121.195 9.02793C120.811 8.76324 120.072 8.4109 119.554 8.24519C119.035 8.07949 118.344 7.76291 118.017 7.54182C117.691 7.32074 117.014 7.00503 116.514 6.83976C116.014 6.67493 115.172 6.32738 114.643 6.06749C114.114 5.8076 113.171 5.45787 112.546 5.29086C111.922 5.12341 111.015 4.80116 110.533 4.57484C110.05 4.34853 109.106 4.04764 108.436 3.90679C107.765 3.76551 106.785 3.45285 106.256 3.21214C105.71 2.96271 104.535 2.66096 103.534 2.51226C102.565 2.36836 101.359 2.08841 100.855 1.89C100.341 1.68766 98.9646 1.41643 97.7245 1.27297C96.5066 1.13212 94.0955 0.85391 92.3657 0.655501C88.976 0.26566 84.4463 -0.0408927 82.7559 0.00445799C82.1793 0.0197202 81.1965 0.0563497 80.5718 0.086002ZM55.0158 36.4886C55.7108 36.7468 56.9963 37.1139 57.8725 37.3049C58.7483 37.4955 59.7897 37.8173 60.1868 38.0192C60.5838 38.2215 61.4544 38.5721 62.1209 38.7984C62.7875 39.0252 63.4602 39.3248 63.6153 39.4652C63.7703 39.6056 64.3303 39.9113 64.8597 40.145C65.3887 40.3783 65.9312 40.7014 66.0649 40.8623C66.199 41.0232 66.6157 41.3119 66.9918 41.5033C69.2995 42.6785 73.6973 47.1635 74.9536 49.6229C75.1589 50.0249 75.524 50.6441 75.7651 50.9986C76.0058 51.3532 76.2898 51.9658 76.3955 52.3605C76.5012 52.7551 76.8117 53.5487 77.0852 54.1243C77.9562 55.9554 78.1528 58.3297 78.1973 67.5551C78.2502 78.5095 78.2558 78.4981 74.145 75.7287C73.8296 75.5163 73.0386 75.2215 72.3869 75.0733C71.7356 74.9255 70.7702 74.6071 70.2421 74.3656C69.714 74.1244 68.4215 73.7804 67.3697 73.6011C66.3183 73.4219 65.1341 73.1106 64.7387 72.9091C64.2749 72.6728 63.2789 72.4512 61.9366 72.286C60.7913 72.1447 59.2183 71.8673 58.4417 71.6694C57.665 71.4714 55.9152 71.1487 54.5532 70.9525C51.4885 70.5112 50.4214 70.3115 50.034 70.1074C49.8684 70.0202 48.7969 69.7442 47.6529 69.4939C46.4644 69.234 45.254 68.8528 44.8289 68.6038C44.4196 68.3644 43.5897 68.0535 42.9852 67.9127C42.3802 67.7718 41.6852 67.4958 41.441 67.2991C41.1969 67.1025 40.5735 66.7458 40.0564 66.5064C39.1958 66.1083 38.227 65.3848 37.3276 64.4687C37.1354 64.2729 36.7929 63.9454 36.5667 63.7409C35.4725 62.7519 34.4722 61.3525 34.0559 60.2292C33.8781 59.7496 33.5335 58.9834 33.2902 58.5264C32.4183 56.889 32.0994 50.7235 32.697 47.0601C33.3483 43.0675 37.5006 38.2398 41.1715 37.2072C41.7481 37.0455 42.4758 36.7559 42.7882 36.5645C44.186 35.7089 52.7715 35.6557 55.0158 36.4886ZM124.802 36.5641C125.441 36.8728 126.361 37.2434 126.847 37.3878C127.333 37.5317 127.951 37.833 128.219 38.0571C128.488 38.2808 128.944 38.5852 129.232 38.7335C130.231 39.2467 132.664 41.8396 133.117 42.8713C133.349 43.4002 133.726 44.1084 133.957 44.445C135.035 46.0201 135.606 51.6462 135.018 54.9093C134.429 58.1815 134.35 58.4933 133.955 59.0955C133.734 59.4312 133.414 60.0984 133.243 60.5781C133.072 61.0578 132.721 61.6857 132.463 61.9735C132.205 62.2613 131.881 62.6655 131.744 62.8722C131.217 63.6659 128.106 66.2591 127.369 66.5186C126.958 66.6634 126.462 66.9263 126.267 67.1033C125.784 67.5407 125.367 67.7295 124.34 67.9763C123.86 68.0915 123.18 68.3736 122.828 68.603C122.446 68.8528 121.579 69.1345 120.663 69.3059C119.823 69.4629 118.656 69.745 118.069 69.933C116.544 70.4214 115.735 70.5862 113.034 70.9612C111.717 71.1443 110.027 71.45 109.278 71.6406C108.529 71.8311 106.985 72.1089 105.847 72.2576C104.652 72.4137 103.323 72.7081 102.702 72.9544C102.11 73.1891 100.84 73.5056 99.8788 73.6583C98.8318 73.8244 97.6764 74.1414 96.9959 74.4488C96.3712 74.7314 95.467 75.0454 94.9865 75.1465C94.5061 75.2477 93.6805 75.5926 93.1519 75.9131C92.6234 76.2332 91.9944 76.5528 91.7541 76.6235C91.5139 76.6941 91.1085 76.9466 90.8534 77.1851C89.3862 78.5553 89.2573 77.6652 89.3565 66.8339C89.4417 57.5335 89.5465 55.9776 90.1694 54.7584C90.3546 54.396 90.673 53.5841 90.877 52.9535C91.081 52.323 91.3982 51.6719 91.5812 51.5062C91.7646 51.3409 92.0429 50.8194 92.1997 50.3485C92.3565 49.8771 92.6859 49.2526 92.9318 48.9609C93.1777 48.6692 93.5835 48.1258 93.8338 47.7539C94.5637 46.669 97.2986 43.7949 98.1709 43.1957C98.6112 42.8931 99.1127 42.505 99.2848 42.3332C99.4573 42.1609 99.8579 41.8897 100.175 41.7297C100.493 41.5701 100.988 41.2251 101.277 40.9631C101.565 40.7014 102.076 40.3844 102.412 40.2593C102.749 40.1337 103.384 39.8079 103.824 39.5345C104.264 39.2615 105.051 38.8887 105.571 38.7056C106.092 38.5229 106.956 38.1771 107.49 37.9368C108.024 37.6965 109.165 37.369 110.024 37.209C110.883 37.0494 111.939 36.7603 112.372 36.5675C113.546 36.0438 115.002 35.9213 119.535 35.9636L123.641 36.002L124.802 36.5641ZM91.0212 87.3476C91.4156 87.6332 92.2272 88.0645 92.8243 88.3069C93.4215 88.5494 94.0369 88.8621 94.192 89.002C94.3471 89.142 95.1626 89.4167 96.0039 89.613C96.8456 89.8088 97.8542 90.1319 98.2456 90.3312C98.637 90.5304 99.8452 90.8453 100.931 91.0306C102.017 91.2159 103.642 91.594 104.543 91.8709C105.632 92.2058 107.088 92.4705 108.883 92.6602C110.481 92.8294 112.157 93.1207 112.983 93.3731C113.752 93.6082 115.285 93.9147 116.39 94.0547C117.667 94.2165 118.75 94.4637 119.361 94.7337C119.889 94.9674 120.947 95.2875 121.711 95.4449C122.475 95.6027 123.375 95.8936 123.711 96.0916C124.047 96.2895 124.832 96.6432 125.457 96.8778C126.08 97.1124 126.846 97.4983 127.158 97.7355C127.469 97.9727 127.803 98.1668 127.9 98.1668C128.201 98.1668 131.395 101.054 132.078 101.944C133.926 104.351 134.943 107.537 135.36 112.228C135.466 113.412 135.416 113.824 134.752 117.266C134.073 120.786 131.247 124.86 128.696 125.997C128.209 126.214 127.517 126.59 127.158 126.833C126.8 127.076 126.059 127.361 125.511 127.467C124.963 127.573 123.925 127.871 123.204 128.128C121.408 128.769 117.102 128.806 114.981 128.198C114.254 127.99 112.762 127.701 111.665 127.557C110.199 127.363 109.387 127.157 108.598 126.778C108.009 126.493 107.142 126.176 106.673 126.071C106.203 125.966 105.466 125.655 105.033 125.379C104.601 125.103 103.805 124.714 103.266 124.513C102.726 124.313 102.154 124.004 101.994 123.828C101.834 123.651 101.371 123.362 100.966 123.186C100.011 122.77 98.2456 121.324 96.1852 119.272C94.5825 117.675 94.1256 117.167 93.7587 116.569C93.5822 116.281 93.2616 115.849 93.0462 115.609C92.8309 115.37 92.5173 114.82 92.3487 114.388C92.1805 113.957 91.8625 113.385 91.6419 113.117C91.4213 112.849 91.0749 112.074 90.8722 111.396C90.6696 110.717 90.3472 109.86 90.155 109.493C89.3168 107.887 88.9376 88.0697 89.7282 87.1967C90.1524 86.728 90.1663 86.7297 91.0212 87.3476ZM77.864 87.3533C78.759 88.3401 78.1873 108.012 77.2075 109.937C77.0131 110.319 76.6759 111.155 76.4579 111.795C75.5533 114.45 72.9639 117.951 70.0115 120.511C67.7379 122.482 66.9398 123.11 66.7048 123.11C66.5869 123.11 65.9513 123.463 65.2931 123.895C64.6348 124.326 64.0211 124.679 63.9298 124.679C63.8385 124.679 63.3191 124.95 62.7762 125.281C62.2332 125.612 61.2779 125.999 60.6533 126.141C60.0286 126.283 59.1637 126.596 58.7313 126.838C58.1792 127.146 57.451 127.337 56.2852 127.479C55.3722 127.591 53.839 127.883 52.878 128.129C50.338 128.779 46.3416 128.779 44.4039 128.129C43.6832 127.887 42.5571 127.591 41.901 127.47C41.1785 127.338 40.5242 127.098 40.2411 126.862C39.9843 126.647 39.4225 126.293 38.9936 126.076C35.8621 124.489 33.1084 120.314 32.5808 116.353C32.1064 112.789 32.4803 107.394 33.312 105.805C33.5488 105.353 33.8912 104.591 34.0738 104.112C34.6447 102.611 37.8941 99.0755 39.4099 98.3046C39.8021 98.1053 40.3591 97.7669 40.6474 97.5533C40.9356 97.3391 41.6254 96.9977 42.1797 96.7945C42.7344 96.5913 43.5626 96.2355 44.02 96.0039C44.4773 95.7724 45.2422 95.5277 45.7196 95.4597C46.1975 95.3912 47.1213 95.1052 47.7735 94.8235C48.6039 94.465 49.5474 94.2387 50.9237 94.0682C53.0558 93.804 54.413 93.5362 54.8782 93.2877C55.0411 93.2009 56.0729 93.0077 57.171 92.859C58.2696 92.7103 59.7844 92.5041 60.5379 92.4012C61.291 92.2978 62.6276 91.993 63.5083 91.7231C64.3884 91.4536 65.7613 91.1457 66.5585 91.0393C67.4007 90.9273 68.4997 90.632 69.1794 90.3355C69.8237 90.0547 70.8615 89.729 71.4862 89.6117C72.1235 89.4922 72.9482 89.1878 73.3658 88.9179C73.775 88.6532 74.4691 88.3305 74.9081 88.2014C75.3471 88.0719 75.9556 87.7527 76.2605 87.492C76.9249 86.9242 77.4351 86.8797 77.864 87.3533Z" fill="#A4CC64"/>
<path d="M184.989 39.7273H207.745L231.779 98.3636H232.802L256.836 39.7273H279.591V127H261.694V70.196H260.969L238.384 126.574H226.197L203.611 69.983H202.887V127H184.989V39.7273ZM308.118 128.236C303.942 128.236 300.22 127.511 296.953 126.062C293.686 124.585 291.101 122.412 289.197 119.543C287.322 116.645 286.385 113.037 286.385 108.719C286.385 105.082 287.052 102.028 288.388 99.5568C289.723 97.0852 291.541 95.0966 293.842 93.5909C296.143 92.0852 298.757 90.9489 301.683 90.1818C304.638 89.4148 307.734 88.875 310.973 88.5625C314.78 88.1648 317.848 87.7955 320.177 87.4545C322.507 87.0852 324.197 86.5455 325.248 85.8352C326.299 85.125 326.825 84.0739 326.825 82.6818V82.4261C326.825 79.7273 325.973 77.6392 324.268 76.1619C322.592 74.6847 320.206 73.946 317.109 73.946C313.842 73.946 311.243 74.6705 309.311 76.1193C307.379 77.5398 306.101 79.3295 305.476 81.4886L288.686 80.125C289.538 76.1477 291.214 72.7102 293.714 69.8125C296.214 66.8864 299.439 64.642 303.388 63.0795C307.365 61.4886 311.967 60.6932 317.194 60.6932C320.831 60.6932 324.311 61.1193 327.635 61.9716C330.987 62.8239 333.956 64.1449 336.541 65.9347C339.155 67.7244 341.214 70.0256 342.72 72.8381C344.226 75.6222 344.978 78.9602 344.978 82.8523V127H327.763V117.923H327.251C326.2 119.969 324.794 121.773 323.032 123.335C321.271 124.869 319.155 126.077 316.683 126.957C314.211 127.81 311.356 128.236 308.118 128.236ZM313.317 115.707C315.987 115.707 318.345 115.182 320.39 114.131C322.436 113.051 324.041 111.602 325.206 109.784C326.371 107.966 326.953 105.906 326.953 103.605V96.6591C326.385 97.0284 325.603 97.3693 324.609 97.6818C323.643 97.9659 322.549 98.2358 321.328 98.4915C320.106 98.7187 318.885 98.9318 317.663 99.1307C316.442 99.3011 315.334 99.4574 314.339 99.5994C312.209 99.9119 310.348 100.409 308.757 101.091C307.166 101.773 305.93 102.696 305.049 103.861C304.169 104.997 303.728 106.418 303.728 108.122C303.728 110.594 304.623 112.483 306.413 113.79C308.231 115.068 310.532 115.707 313.317 115.707ZM354.062 127V61.5455H371.662V72.9659H372.344C373.537 68.9034 375.54 65.8352 378.352 63.7614C381.165 61.6591 384.403 60.608 388.068 60.608C388.977 60.608 389.957 60.6648 391.008 60.7784C392.059 60.892 392.983 61.0483 393.778 61.2472V77.3551C392.926 77.0994 391.747 76.8722 390.241 76.6733C388.736 76.4744 387.358 76.375 386.108 76.375C383.437 76.375 381.051 76.9574 378.949 78.1222C376.875 79.2585 375.227 80.8494 374.005 82.8949C372.812 84.9403 372.216 87.2983 372.216 89.9688V127H354.062ZM414.613 108.165L414.655 86.3892H417.297L438.263 61.5455H459.101L430.934 94.4432H426.63L414.613 108.165ZM398.164 127V39.7273H416.317V127H398.164ZM439.073 127L419.812 98.4915L431.914 85.6648L460.337 127H439.073ZM490.142 128.278C483.409 128.278 477.613 126.915 472.755 124.188C467.926 121.432 464.204 117.54 461.591 112.511C458.977 107.455 457.67 101.474 457.67 94.571C457.67 87.8381 458.977 81.929 461.591 76.8438C464.204 71.7585 467.883 67.7955 472.628 64.9545C477.4 62.1136 482.997 60.6932 489.417 60.6932C493.736 60.6932 497.755 61.3892 501.477 62.7812C505.227 64.1449 508.494 66.2045 511.278 68.9602C514.091 71.7159 516.278 75.1818 517.841 79.358C519.403 83.5057 520.184 88.3636 520.184 93.9318V98.9176H464.915V87.6676H503.096C503.096 85.054 502.528 82.7386 501.392 80.7216C500.255 78.7045 498.679 77.1278 496.662 75.9915C494.673 74.8267 492.358 74.2443 489.716 74.2443C486.96 74.2443 484.517 74.8835 482.386 76.1619C480.284 77.4119 478.636 79.1023 477.443 81.233C476.25 83.3352 475.639 85.679 475.611 88.2642V98.9602C475.611 102.199 476.207 104.997 477.4 107.355C478.622 109.713 480.341 111.531 482.557 112.81C484.773 114.088 487.4 114.727 490.44 114.727C492.457 114.727 494.304 114.443 495.98 113.875C497.656 113.307 499.091 112.455 500.284 111.318C501.477 110.182 502.386 108.79 503.011 107.142L519.801 108.25C518.949 112.284 517.201 115.807 514.559 118.818C511.946 121.801 508.565 124.131 504.417 125.807C500.298 127.455 495.54 128.278 490.142 128.278ZM508.554 54.9403V39.7273H580.23V54.9403H553.512V127H535.273V54.9403H508.554ZM595.447 89.1591V127H577.294V39.7273H594.936V73.0938H595.703C597.18 69.2301 599.566 66.2045 602.862 64.017C606.157 61.8011 610.291 60.6932 615.262 60.6932C619.808 60.6932 623.771 61.6875 627.151 63.6761C630.561 65.6364 633.203 68.4631 635.078 72.1562C636.981 75.821 637.919 80.2102 637.89 85.3239V127H619.737V88.5625C619.765 84.5284 618.742 81.3892 616.669 79.1449C614.623 76.9006 611.754 75.7784 608.061 75.7784C605.589 75.7784 603.401 76.304 601.498 77.3551C599.623 78.4062 598.146 79.9403 597.066 81.9574C596.015 83.946 595.475 86.3466 595.447 89.1591ZM646.176 127V61.5455H664.33V127H646.176ZM655.296 53.108C652.597 53.108 650.281 52.2131 648.35 50.4233C646.446 48.6051 645.495 46.4318 645.495 43.9034C645.495 41.4034 646.446 39.2585 648.35 37.4688C650.281 35.6506 652.597 34.7415 655.296 34.7415C657.995 34.7415 660.296 35.6506 662.199 37.4688C664.131 39.2585 665.097 41.4034 665.097 43.9034C665.097 46.4318 664.131 48.6051 662.199 50.4233C660.296 52.2131 657.995 53.108 655.296 53.108ZM691.025 89.1591V127H672.872V61.5455H690.173V73.0938H690.94C692.389 69.2869 694.818 66.2756 698.227 64.0597C701.636 61.8153 705.769 60.6932 710.627 60.6932C715.173 60.6932 719.136 61.6875 722.517 63.6761C725.897 65.6648 728.525 68.5057 730.4 72.1989C732.275 75.8636 733.213 80.2386 733.213 85.3239V127H715.059V88.5625C715.088 84.5568 714.065 81.4318 711.991 79.1875C709.917 76.9148 707.062 75.7784 703.426 75.7784C700.982 75.7784 698.823 76.304 696.948 77.3551C695.102 78.4062 693.653 79.9403 692.602 81.9574C691.579 83.946 691.053 86.3466 691.025 89.1591ZM771.009 152.909C765.128 152.909 760.085 152.099 755.881 150.48C751.705 148.889 748.381 146.716 745.909 143.96C743.438 141.205 741.833 138.108 741.094 134.67L757.884 132.412C758.395 133.719 759.205 134.94 760.313 136.077C761.421 137.213 762.884 138.122 764.702 138.804C766.548 139.514 768.793 139.869 771.435 139.869C775.384 139.869 778.637 138.903 781.193 136.972C783.779 135.068 785.071 131.872 785.071 127.384V115.409H784.304C783.509 117.227 782.316 118.946 780.725 120.565C779.134 122.185 777.088 123.506 774.588 124.528C772.088 125.551 769.105 126.062 765.639 126.062C760.725 126.062 756.25 124.926 752.216 122.653C748.21 120.352 745.014 116.844 742.628 112.128C740.27 107.384 739.091 101.389 739.091 94.1449C739.091 86.7301 740.298 80.5369 742.713 75.5653C745.128 70.5937 748.338 66.8722 752.344 64.4006C756.378 61.929 760.796 60.6932 765.597 60.6932C769.262 60.6932 772.33 61.3182 774.801 62.5682C777.273 63.7898 779.262 65.3239 780.767 67.1705C782.301 68.9886 783.48 70.7784 784.304 72.5398H784.986V61.5455H803.012V127.639C803.012 133.207 801.648 137.866 798.921 141.616C796.193 145.366 792.415 148.179 787.585 150.054C782.784 151.957 777.259 152.909 771.009 152.909ZM771.392 112.426C774.318 112.426 776.79 111.702 778.807 110.253C780.852 108.776 782.415 106.673 783.495 103.946C784.602 101.19 785.156 97.8949 785.156 94.0597C785.156 90.2244 784.617 86.9006 783.537 84.0881C782.458 81.2472 780.895 79.0455 778.85 77.483C776.804 75.9205 774.318 75.1392 771.392 75.1392C768.409 75.1392 765.895 75.9489 763.85 77.5682C761.804 79.1591 760.256 81.375 759.205 84.2159C758.154 87.0568 757.628 90.3381 757.628 94.0597C757.628 97.8381 758.154 101.105 759.205 103.861C760.284 106.588 761.833 108.705 763.85 110.21C765.895 111.687 768.409 112.426 771.392 112.426ZM865.918 80.2102L849.298 81.233C849.014 79.8125 848.404 78.5341 847.466 77.3977C846.529 76.233 845.293 75.3097 843.759 74.6278C842.253 73.9176 840.449 73.5625 838.347 73.5625C835.534 73.5625 833.162 74.1591 831.23 75.3523C829.298 76.517 828.333 78.0795 828.333 80.0398C828.333 81.6023 828.958 82.9233 830.208 84.0028C831.458 85.0824 833.602 85.9489 836.642 86.6023L848.489 88.9886C854.852 90.2955 859.597 92.3977 862.722 95.2955C865.847 98.1932 867.409 102 867.409 106.716C867.409 111.006 866.145 114.77 863.617 118.009C861.117 121.247 857.679 123.776 853.304 125.594C848.958 127.384 843.943 128.278 838.262 128.278C829.597 128.278 822.693 126.474 817.551 122.866C812.438 119.23 809.441 114.287 808.56 108.037L826.415 107.099C826.955 109.741 828.262 111.759 830.335 113.151C832.409 114.514 835.066 115.196 838.304 115.196C841.486 115.196 844.043 114.585 845.975 113.364C847.935 112.114 848.929 110.509 848.958 108.548C848.929 106.901 848.233 105.551 846.87 104.5C845.506 103.42 843.404 102.597 840.563 102.028L829.227 99.7699C822.835 98.4915 818.077 96.2756 814.952 93.1222C811.855 89.9687 810.307 85.9489 810.307 81.0625C810.307 76.858 811.443 73.2358 813.716 70.196C816.017 67.1562 819.242 64.8125 823.389 63.1648C827.566 61.517 832.452 60.6932 838.048 60.6932C846.316 60.6932 852.821 62.4403 857.566 65.9347C862.338 69.429 865.122 74.1875 865.918 80.2102Z" fill="#4B4A48"/>
</svg>
