<svg width="71" height="72" viewBox="0 0 71 72" fill="none" xmlns="http://www.w3.org/2000/svg">
<path d="M36.5 0C30.1493 0 25 5.14933 25 11.5C25 17.8507 30.1493 23 36.5 23C42.8507 23 48 17.8507 48 11.5C48 5.14933 42.8507 0 36.5 0ZM37.0724 17.0754L37.0776 17.8892C37.0776 18.0021 36.9852 18.0971 36.8722 18.0971H36.1432C36.0302 18.0971 35.9378 18.0047 35.9378 17.8917V17.0857C33.6584 16.9163 32.5854 15.6174 32.4699 14.2056C32.4596 14.0849 32.5546 13.9823 32.6752 13.9823H33.8612C33.9613 13.9823 34.0485 14.0541 34.064 14.1517C34.1949 14.9654 34.8289 15.5738 35.9661 15.7252V12.0622L35.332 11.9004C33.9895 11.5796 32.7112 10.7427 32.7112 9.00748C32.7112 7.13616 34.1333 6.12991 35.9507 5.95279V5.10569C35.9507 4.99275 36.0431 4.90033 36.156 4.90033H36.8773C36.9903 4.90033 37.0827 4.99275 37.0827 5.10569V5.94509C38.8411 6.12221 40.1605 7.149 40.3145 8.74821C40.3273 8.86886 40.2324 8.97411 40.1092 8.97411H38.9566C38.8539 8.97411 38.7666 8.8971 38.7538 8.79699C38.6511 8.04743 38.0504 7.4365 37.0724 7.30301V10.7504L37.7244 10.9019C39.3878 11.3126 40.5199 12.1084 40.5199 13.8898C40.5199 15.8228 39.0824 16.9009 37.0724 17.0754ZM34.3078 8.8894C34.3078 9.54141 34.7108 10.0471 35.5785 10.3603C35.6991 10.409 35.8198 10.4475 35.9635 10.4886V7.30558C35.0163 7.42623 34.3078 7.95759 34.3078 8.8894ZM37.2983 12.3599C37.2265 12.3445 37.1546 12.3266 37.0724 12.3035V15.7355C38.166 15.6379 38.9206 15.0373 38.9206 14.031C38.9206 13.243 38.5125 12.7296 37.2983 12.3599Z" fill="#8EC254"/>
<path d="M11 60L11 12" stroke="#8EC254" stroke-width="6" stroke-linecap="round"/>
<line x1="11" y1="12" x2="25" y2="12" stroke="#8EC254" stroke-width="6" stroke-linecap="round"/>
<path d="M61 54L61 12" stroke="#8EC254" stroke-width="6" stroke-linecap="round"/>
<line x1="3" y1="-3" x2="17" y2="-3" transform="matrix(-1 0 0 1 64 15)" stroke="#8EC254" stroke-width="6" stroke-linecap="round"/>
<circle cx="61" cy="62" r="7.5" fill="#8EC254" stroke="#8EC254" stroke-width="5"/>
<rect y="55" width="22" height="17" rx="4" fill="#8EC254"/>
</svg>
