<svg width="40" height="64" viewBox="0 0 40 64" fill="none" xmlns="http://www.w3.org/2000/svg">
<path d="M20.4167 19C18.2065 19 16.0869 19.883 14.5241 21.4547C12.9613 23.0265 12.0833 25.1582 12.0833 27.381V30.2766L10.1104 34.245C10.0308 34.4047 9.99316 34.5822 10.001 34.7607C10.0089 34.9391 10.062 35.1126 10.1553 35.2646C10.2486 35.4167 10.3791 35.5421 10.5342 35.6292C10.6893 35.7162 10.864 35.7619 11.0416 35.7619H29.7917C29.9693 35.7619 30.144 35.7162 30.2991 35.6292C30.4543 35.5421 30.5847 35.4167 30.678 35.2646C30.7713 35.1126 30.8244 34.9391 30.8323 34.7607C30.8402 34.5822 30.8025 34.4047 30.7229 34.245L28.75 30.2766V27.381C28.75 25.1582 27.8721 23.0265 26.3092 21.4547C24.7464 19.883 22.6268 19 20.4167 19ZM20.4167 41C19.4927 41.0002 18.595 40.6916 17.8645 40.1227C17.134 39.5538 16.6122 38.7568 16.3812 37.8571H24.4521C24.2211 38.7568 23.6994 39.5538 22.9689 40.1227C22.2384 40.6916 21.3406 41.0002 20.4167 41Z" fill="white"/>
<path d="M33.3467 0H6.65333C4.88876 0 3.19646 0.672935 1.94872 1.87077C0.700974 3.0686 0 4.69321 0 6.3872V57.6096C0 61.1392 2.98 64 6.65333 64H33.3433C35.1082 64 36.8009 63.3272 38.0491 62.1294C39.2974 60.9317 39.9991 59.3071 40 57.6128V6.3872C40 4.69321 39.299 3.0686 38.0513 1.87077C36.8035 0.672935 35.1112 0 33.3467 0ZM20 60.8C17.7 60.8 15.8333 59.3696 15.8333 57.6C15.8333 55.8304 17.7 54.4 20 54.4C22.3 54.4 24.1667 55.8304 24.1667 57.6C24.1667 59.3696 22.3 60.8 20 60.8ZM33.3333 51.2H6.66667V6.4H33.3333V51.2Z" fill="white"/>
</svg>
