<svg width="78" height="72" viewBox="0 0 78 72" fill="none" xmlns="http://www.w3.org/2000/svg">
<path d="M69.6421 38.7691C67.9146 38.7716 66.2301 39.3051 64.8197 40.2967C63.4092 41.2883 62.3418 42.6893 61.7638 44.3076H54.9354L49.9995 29.5856C49.8113 29.0247 49.4474 28.5384 48.9611 28.1979C48.4748 27.8574 47.8916 27.6806 47.2969 27.6933C46.7022 27.7061 46.1272 27.9078 45.6561 28.2688C45.185 28.6299 44.8426 29.1314 44.6789 29.6999L36.9295 56.6584L27.8185 2.31206C27.7129 1.68459 27.3931 1.11242 26.913 0.691754C26.4329 0.271091 25.8217 0.0275942 25.1822 0.00220696C24.5428 -0.0231802 23.914 0.171091 23.4017 0.552353C22.8893 0.933616 22.5247 1.47862 22.369 2.09572L11.7538 44.3076H2.78568C2.04687 44.3076 1.33832 44.5994 0.815908 45.1187C0.293491 45.638 0 46.3424 0 47.0768C0 47.8113 0.293491 48.5157 0.815908 49.035C1.33832 49.5543 2.04687 49.8461 2.78568 49.8461H13.9284C14.5496 49.846 15.153 49.6395 15.6425 49.2594C16.1321 48.8793 16.4799 48.3475 16.6305 47.7484L24.5245 16.3573L33.4665 69.686C33.5696 70.3069 33.8823 70.8745 34.3532 71.2951C34.8241 71.7157 35.4251 71.9643 36.0572 72H36.2156C36.8205 71.9995 37.4087 71.8033 37.8915 71.4411C38.3742 71.0789 38.7253 70.5704 38.8916 69.9923L47.5621 39.8284L50.2851 47.9526C50.47 48.504 50.8247 48.9836 51.2991 49.3234C51.7734 49.6633 52.3433 49.8461 52.928 49.8461H61.7638C62.2746 51.2821 63.1726 52.5509 64.3597 53.5138C65.5468 54.4767 66.9774 55.0966 68.495 55.3058C70.0126 55.515 71.5589 55.3055 72.9648 54.7C74.3707 54.0946 75.5822 53.1166 76.4667 51.873C77.3512 50.6293 77.8748 49.1679 77.9802 47.6484C78.0856 46.1289 77.7688 44.6098 77.0643 43.2572C76.3599 41.9046 75.295 40.7706 73.986 39.9791C72.677 39.1875 71.1743 38.769 69.6421 38.7691Z" fill="#8EC254"/>
</svg>
