<svg width="54" height="64" viewBox="0 0 54 64" fill="none" xmlns="http://www.w3.org/2000/svg">
<path fill-rule="evenodd" clip-rule="evenodd" d="M34.6512 3.08429C33.7082 2.11747 32.5355 1.34091 31.2145 0.808365C29.8934 0.275818 28.4554 0 27 0C25.5446 0 24.1066 0.275818 22.7855 0.808365C21.4645 1.34091 20.2918 2.11747 19.3488 3.08429L19.2081 3.23032C18.8641 3.58237 18.429 3.8581 17.9389 4.03479C17.4487 4.21149 16.9174 4.2841 16.3887 4.24664L16.1711 4.23204C14.721 4.13068 13.2629 4.30523 11.8977 4.74363C10.5326 5.18203 9.29286 5.87382 8.26434 6.77116C7.23582 7.66849 6.44304 8.74996 5.94082 9.94078C5.43859 11.1316 5.23891 12.4034 5.35557 13.6681L5.36897 13.8579C5.41191 14.319 5.32866 14.7824 5.12607 15.2099C4.92348 15.6374 4.60735 16.0169 4.2037 16.317L4.03628 16.4396C2.92778 17.2621 2.03742 18.2849 1.42683 19.4371C0.816239 20.5894 0.5 21.8436 0.5 23.1129C0.5 24.3823 0.816239 25.6365 1.42683 26.7887C2.03742 27.9409 2.92778 28.9637 4.03628 29.7862L4.2037 29.9089C4.60735 30.209 4.92348 30.5884 5.12607 31.0159C5.32866 31.4434 5.41191 31.9068 5.36897 32.3679L5.35223 32.5577C5.15277 34.7295 5.8876 36.8882 7.4135 38.6132C8.93939 40.3382 11.147 41.5059 13.6062 41.8886V61.0791C13.6061 61.6078 13.7706 62.1267 14.0821 62.5802C14.3936 63.0338 14.8404 63.4051 15.3749 63.6546C15.9095 63.904 16.5116 64.0222 17.1171 63.9966C17.7226 63.9709 18.3087 63.8024 18.813 63.5089L27 58.7486L35.187 63.5089C35.6913 63.8024 36.2774 63.9709 36.8829 63.9966C37.4884 64.0222 38.0905 63.904 38.6251 63.6546C39.1596 63.4051 39.6064 63.0338 39.9179 62.5802C40.2294 62.1267 40.3939 61.6078 40.3938 61.0791V41.8916C42.8536 41.5088 45.0617 40.3407 46.5877 38.615C48.1137 36.8894 48.8481 34.73 48.6478 32.5577L48.631 32.3679C48.5881 31.9068 48.6713 31.4434 48.8739 31.0159C49.0765 30.5884 49.3927 30.209 49.7963 29.9089L49.9637 29.7862C51.0722 28.9637 51.9626 27.9409 52.5732 26.7887C53.1838 25.6365 53.5 24.3823 53.5 23.1129C53.5 21.8436 53.1838 20.5894 52.5732 19.4371C51.9626 18.2849 51.0722 17.2621 49.9637 16.4396L49.7963 16.317C49.3927 16.0169 49.0765 15.6374 48.8739 15.2099C48.6713 14.7824 48.5881 14.319 48.631 13.8579L48.6478 13.6681C48.764 12.4033 48.5639 11.1316 48.0612 9.94094C47.5586 8.75026 46.7654 7.669 45.7366 6.77194C44.7077 5.87489 43.4678 5.18343 42.1024 4.7454C40.7371 4.30737 39.279 4.13321 37.8289 4.23496L37.6113 4.24664C37.0826 4.2841 36.5513 4.21149 36.0611 4.03479C35.571 3.8581 35.1359 3.58237 34.7919 3.23032L34.6512 3.08429ZM20.3031 55.6236V43.9943C22.1455 45.4299 24.5295 46.2234 27 46.2234C29.4705 46.2234 31.8545 45.4299 33.6969 43.9943V55.6178L28.8584 52.8054C28.3081 52.4852 27.6615 52.3143 27 52.3143C26.3385 52.3143 25.6919 52.4852 25.1416 52.8054L20.3031 55.6236ZM36.0643 22.2572C36.6742 21.7064 37.0117 20.9687 37.0041 20.2029C36.9965 19.4372 36.6443 18.7047 36.0235 18.1632C35.4027 17.6218 34.878 17.5067 34 17.5C33.122 17.4933 32.6315 17.968 32 18.5L24 25.5L22.5 24.0042C21.8685 23.4722 21.1931 23.1423 20.3151 23.1489C19.4372 23.1556 18.5973 23.4627 17.9765 24.0042C17.3557 24.5457 17.0035 25.2782 16.9959 26.0439C16.9883 26.8096 17.3258 27.5474 17.9357 28.0982L21.2842 31.0186C21.9121 31.5661 22.7637 31.8737 23.6515 31.8737C24.5394 31.8737 25.391 31.5661 26.0189 31.0186L36.0643 22.2572Z" fill="white"/>
</svg>
