<svg width="66" height="64" viewBox="0 0 66 64" fill="none" xmlns="http://www.w3.org/2000/svg">
<path d="M52.8015 51.2C49.2495 51.2 46.4015 54.048 46.4015 57.6C46.4015 59.2974 47.0758 60.9252 48.276 62.1255C49.4762 63.3257 51.1041 64 52.8015 64C54.4989 64 56.1267 63.3257 57.327 62.1255C58.5272 60.9252 59.2015 59.2974 59.2015 57.6C59.2015 55.9026 58.5272 54.2747 57.327 53.0745C56.1267 51.8743 54.4989 51.2 52.8015 51.2ZM1.6015 0C-1.50881 2.22222 0.706905 6.4 1.63508 6.4C2.56326 6.4 8.0015 6.4 8.0015 6.4L19.5215 30.688L15.1695 38.528C14.6895 39.424 14.4015 40.48 14.4015 41.6C14.4015 43.2974 15.0758 44.9252 16.276 46.1255C17.4762 47.3257 19.1041 48 20.8015 48C20.8015 48 56.7131 48 59.2015 48C61.6899 48 62.4909 41.7778 59.2015 41.6C55.9121 41.4222 22.1455 41.6 22.1455 41.6C21.9333 41.6 21.7298 41.5157 21.5798 41.3657C21.4298 41.2157 21.3455 41.0122 21.3455 40.8C21.3455 40.64 21.3775 40.512 21.4415 40.416L24.3215 35.2H48.1615C50.5615 35.2 52.6735 33.856 53.7615 31.904L65.2175 11.2C65.4415 10.688 65.6015 10.144 65.6015 9.6C65.6015 8.75131 65.2643 7.93738 64.6642 7.33726C64.0641 6.73714 63.2502 6.4 62.4015 6.4H15.0735C15.0735 6.4 13.1389 0 12.0655 0M20.8015 51.2C17.2495 51.2 14.4015 54.048 14.4015 57.6C14.4015 59.2974 15.0758 60.9252 16.276 62.1255C17.4762 63.3257 19.1041 64 20.8015 64C22.4989 64 24.1267 63.3257 25.327 62.1255C26.5272 60.9252 27.2015 59.2974 27.2015 57.6C27.2015 55.9026 26.5272 54.2747 25.327 53.0745C24.1267 51.8743 22.4989 51.2 20.8015 51.2Z" fill="white"/>
</svg>
