<svg width="144" height="100" viewBox="0 0 144 100" fill="none" xmlns="http://www.w3.org/2000/svg">
<path d="M121.095 43.6823C127.926 45.2389 133.944 49.2552 138.002 54.9652C142.061 60.6753 143.875 67.6794 143.099 74.6416C142.324 81.6039 139.013 88.0371 133.797 92.7141C128.582 97.3911 121.827 99.9846 114.822 100H36.4051C27.5657 100.009 19.0383 96.733 12.4784 90.8083C5.91847 84.8836 1.79398 76.7327 0.905638 67.9381C0.0172902 59.1435 2.42845 50.3325 7.67105 43.2156C12.9137 36.0987 20.6137 31.1837 29.2763 29.4247V28.7118C29.2718 24.9416 30.2641 21.2371 32.1526 17.9739C34.0411 14.7108 36.7587 12.0048 40.0299 10.1303C43.3012 8.25588 47.0099 7.27951 50.7801 7.30021C54.5503 7.32091 58.248 8.33792 61.4985 10.2482C66.5008 5.30549 72.8583 1.95976 79.7648 0.635327C86.6712 -0.689105 93.8155 0.0674333 100.291 2.80899C106.767 5.55055 112.283 10.1536 116.139 16.0344C119.995 21.9151 122.018 28.8087 121.951 35.8406C121.951 38.5496 121.666 41.116 121.095 43.6823Z" fill="url(#paint0_linear_283_920)"/>
<path fill-rule="evenodd" clip-rule="evenodd" d="M76.894 31.1007C75.8761 30.6819 74.5831 30.6819 71.9998 30.6819C69.4165 30.6819 68.1235 30.6819 67.1056 31.1007C65.7505 31.658 64.6719 32.7315 64.1068 34.0852C63.8482 34.6997 63.7492 35.4189 63.7079 36.4633C63.6896 37.22 63.4788 37.9596 63.0956 38.612C62.7125 39.2644 62.1695 39.8081 61.518 40.1917C60.8543 40.5613 60.1082 40.7571 59.3488 40.7609C58.5895 40.7648 57.8414 40.5766 57.174 40.2138C56.2441 39.7233 55.5701 39.4532 54.9043 39.365C53.4478 39.1735 51.9746 39.5656 50.8052 40.4563C49.9303 41.1232 49.2838 42.2365 47.9935 44.4603C46.7005 46.6841 46.0567 47.7947 45.9109 48.8832C45.7183 50.3327 46.1145 51.7987 47.0114 52.9588C47.4185 53.4879 47.9935 53.9316 48.8821 54.4882C50.1944 55.3067 51.0363 56.701 51.0363 58.2387C51.0363 59.7764 50.1944 61.1707 48.8849 61.9864C47.9935 62.5458 47.4185 62.9895 47.0086 63.5186C46.5659 64.0916 46.241 64.7468 46.0526 65.4464C45.8641 66.1459 45.816 66.8759 45.9109 67.5942C46.0567 68.68 46.7005 69.7933 47.9935 72.0171C49.2865 74.2409 49.9303 75.3515 50.8052 76.0211C51.9716 76.9112 53.4462 77.3025 54.9043 77.1124C55.5701 77.0242 56.2441 76.7541 57.174 76.2636C57.8418 75.9003 58.5903 75.7119 59.3502 75.7157C60.1101 75.7196 60.8567 75.9156 61.5208 76.2857C62.8578 77.0573 63.6501 78.4764 63.7079 80.0141C63.7492 81.0613 63.8482 81.7777 64.1068 82.3923C64.6681 83.7425 65.7465 84.8173 67.1056 85.3767C68.1235 85.7955 69.4165 85.7955 71.9998 85.7955C74.5831 85.7955 75.8761 85.7955 76.894 85.3767C78.2491 84.8194 79.3277 83.7459 79.8928 82.3923C80.1514 81.7777 80.2504 81.0613 80.2917 80.0141C80.3467 78.4764 81.1418 77.0545 82.4816 76.2857C83.1453 75.9161 83.8914 75.7203 84.6508 75.7165C85.4101 75.7126 86.1582 75.9008 86.8256 76.2636C87.7555 76.7541 88.4295 77.0242 89.0953 77.1124C90.5534 77.3053 92.028 76.9112 93.1944 76.0211C94.0693 75.3542 94.7158 74.2409 96.0061 72.0171C97.2991 69.7933 97.9429 68.6827 98.0887 67.5942C98.1832 66.8758 98.1346 66.1456 97.9457 65.4461C97.7569 64.7465 97.4314 64.0914 96.9882 63.5186C96.5811 62.9895 96.0061 62.5458 95.1175 61.9892C93.8052 61.1707 92.9633 59.7764 92.9633 58.2387C92.9633 56.701 93.8052 55.3067 95.1147 54.491C96.0061 53.9316 96.5811 53.4879 96.991 52.9588C97.4337 52.3858 97.7586 51.7306 97.947 51.031C98.1354 50.3315 98.1836 49.6015 98.0887 48.8832C97.9429 47.7974 97.2991 46.6841 96.0061 44.4603C94.713 42.2365 94.0693 41.1259 93.1944 40.4563C92.025 39.5656 90.5518 39.1735 89.0953 39.365C88.4295 39.4532 87.7555 39.7233 86.8256 40.2138C86.1578 40.5771 85.4093 40.7655 84.6494 40.7617C83.8895 40.7578 83.1429 40.5618 82.4788 40.1917C81.8279 39.8078 81.2854 39.2639 80.9027 38.6115C80.5201 37.9591 80.3097 37.2198 80.2917 36.4633C80.2504 35.4161 80.1514 34.6997 79.8928 34.0852C79.6131 33.4148 79.2044 32.8062 78.6898 32.2941C78.1753 31.782 77.5651 31.3765 76.894 31.1007ZM71.9998 66.5057C76.5942 66.5057 80.3164 62.8049 80.3164 58.2387C80.3164 53.6725 76.5914 49.9717 71.9998 49.9717C67.4054 49.9717 63.6832 53.6725 63.6832 58.2387C63.6832 62.8049 67.4082 66.5057 71.9998 66.5057Z" fill="white"/>
<defs>
<linearGradient id="paint0_linear_283_920" x1="0.725097" y1="45.2899" x2="156.293" y2="95.3612" gradientUnits="userSpaceOnUse">
<stop stop-color="#98C25E"/>
<stop offset="1" stop-color="#54AFE8"/>
</linearGradient>
</defs>
</svg>
