<svg width="122" height="100" viewBox="0 0 122 100" fill="none" xmlns="http://www.w3.org/2000/svg">
<path d="M43.7051 0C50.3288 0 56.6811 2.63443 61.3647 7.32375C66.0483 12.0131 68.6795 18.3732 68.6795 25.0049C68.6795 31.6366 66.0483 37.9966 61.3647 42.686C56.6811 47.3753 50.3288 50.0097 43.7051 50.0097C37.0815 50.0097 30.7292 47.3753 26.0456 42.686C21.362 37.9966 18.7308 31.6366 18.7308 25.0049C18.7308 18.3732 21.362 12.0131 26.0456 7.32375C30.7292 2.63443 37.0815 0 43.7051 0ZM34.7885 59.3865H52.6218C54.9241 59.3865 57.1874 59.621 59.3532 60.0312C58.9434 63.6452 60.797 66.9857 63.6066 68.7829C60.3677 70.8536 58.3971 74.956 59.7043 79.1951C60.4848 81.7151 61.5384 84.1765 62.9042 86.5402C64.27 88.904 65.8699 91.0528 67.6649 92.9868C70.7282 96.2882 75.3914 96.5813 78.8254 94.6864V94.8622C78.8254 96.6594 79.3522 98.4762 80.3667 99.9999H5.79483C2.59499 100.019 0 97.4213 0 94.2175C0 74.9755 15.57 59.3865 34.7885 59.3865ZM85.0689 42.6255C85.0689 41.258 85.9469 40.0273 87.2737 39.7343C89.3224 39.2654 91.4686 39.0115 93.6539 39.0115C95.8391 39.0115 97.9854 39.2654 100.034 39.7343C101.361 40.0273 102.239 41.258 102.239 42.6255V48.6032C103.78 49.2674 105.244 50.1074 106.59 51.1037L111.448 48.3102C112.638 47.6264 114.121 47.7827 115.058 48.779C116.541 50.3613 117.848 52.139 118.979 54.0925C120.111 56.046 120.989 58.0777 121.613 60.1484C122.023 61.4572 121.399 62.8247 120.209 63.5084L115.331 66.3215C115.409 67.1029 115.467 67.9038 115.467 68.7243C115.467 69.5448 115.428 70.3262 115.331 71.1271L120.209 73.9401C121.399 74.6239 122.004 75.9913 121.613 77.3002C120.97 79.3709 120.092 81.4025 118.979 83.356C117.867 85.3095 116.541 87.0872 115.058 88.6696C114.121 89.6659 112.619 89.8221 111.448 89.1384L106.59 86.3449C105.244 87.3412 103.8 88.1812 102.239 88.8454V94.8231C102.239 96.1906 101.361 97.4213 100.034 97.7143C97.9854 98.1831 95.8391 98.4371 93.6539 98.4371C91.4686 98.4371 89.3224 98.1831 87.2737 97.7143C85.9469 97.4213 85.0689 96.1906 85.0689 94.8231V88.8454C83.508 88.1812 82.0252 87.3412 80.6789 86.3254L75.8596 89.1189C74.6695 89.8026 73.1866 89.6463 72.2501 88.65C70.7672 87.0677 69.46 85.29 68.3283 83.3365C67.1967 81.383 66.3187 79.3514 65.6943 77.2806C65.2846 75.9718 65.9089 74.6043 67.0991 73.9206L71.9379 71.1271C71.8598 70.3262 71.8013 69.5252 71.8013 68.7048C71.8013 67.8843 71.8403 67.0833 71.9379 66.2824L67.0796 63.4889C65.8894 62.8052 65.2846 61.4377 65.6748 60.1289C66.3187 58.0582 67.1771 56.0265 68.3088 54.073C69.4405 52.1195 70.7477 50.3418 72.2306 48.7595C73.1671 47.7632 74.6499 47.6069 75.8401 48.2906L80.6789 51.0841C82.0252 50.0879 83.508 49.2478 85.0689 48.5641V42.6255ZM103.039 68.7048C103.097 67.4361 102.897 66.1688 102.452 64.9795C102.007 63.7903 101.326 62.7037 100.449 61.7854C99.5731 60.8671 98.52 60.1362 97.3537 59.6369C96.1874 59.1375 94.9321 58.8801 93.6636 58.8801C92.3952 58.8801 91.1399 59.1375 89.9736 59.6369C88.8073 60.1362 87.7542 60.8671 86.8779 61.7854C86.0017 62.7037 85.3205 63.7903 84.8754 64.9795C84.4303 66.1688 84.2307 67.4361 84.2885 68.7048C84.2307 69.9734 84.4303 71.2407 84.8754 72.43C85.3205 73.6192 86.0017 74.7058 86.8779 75.6241C87.7542 76.5424 88.8073 77.2733 89.9736 77.7726C91.1399 78.272 92.3952 78.5294 93.6636 78.5294C94.9321 78.5294 96.1874 78.272 97.3537 77.7726C98.52 77.2733 99.5731 76.5424 100.449 75.6241C101.326 74.7058 102.007 73.6192 102.452 72.43C102.897 71.2407 103.097 69.9734 103.039 68.7048Z" fill="url(#paint0_linear_283_919)"/>
<defs>
<linearGradient id="paint0_linear_283_919" x1="-6.53682e-07" y1="45.2899" x2="136.321" y2="82.7608" gradientUnits="userSpaceOnUse">
<stop stop-color="#98C25E"/>
<stop offset="1" stop-color="#54AFE8"/>
</linearGradient>
</defs>
</svg>
